<?xml version="1.0" encoding="utf-8"?>
<!-- Generator: Adobe Illustrator 24.3.0, SVG Export Plug-In . SVG Version: 6.00 Build 0)  -->
<svg version="1.1" id="Слой_1" xmlns="http://www.w3.org/2000/svg" xmlns:xlink="http://www.w3.org/1999/xlink" x="0px" y="0px"
	 viewBox="0 0 1080 1080" style="enable-background:new 0 0 1080 1080;" xml:space="preserve">
<g>
	<path d="M329.4,894c-13.7-12-16.2-30.3-25.1-46.8c0.2,3,0.8,4.6,0.4,5.9c-0.8,2.5-1.7,6.3-3.5,6.8c-2,0.6-5.7-1-7.2-2.8
		c-2.6-3.1-4.2-7-5.9-10.7c-1.4-3-2-6.3-3.5-9.2c-9.9-18.8-5.9-38.3-3.9-57.9c3.2-32.9,6.6-65.9,8-98.9c1.2-27.9-0.1-55.9-1.1-83.8
		c-0.4-10.6-2.9-21.1-4.2-31.7c-0.9-7.7-1.2-15.5-1.8-23.2c-3.5-42.1,3.4-83,15.6-123.1c2-6.7,4.4-13.3,10.6-17.6
		c1.5-1,2.1-3.4,2.9-5.3c6.1-14,12.9-27.6,23.1-39.1c8.9-10.1,19.4-17.7,32.9-20.4c1.8-0.4,3.5-1.1,5.2-1.9c4.2-1.8,6.7-0.9,6.6,4.7
		c13.8-5.7,27.1-11.2,40.5-16.7c-4.2-14.7,0.2-27.2,4.6-40.8c-3.4,1-6,2.2-8.7,2.3c-2.1,0.1-4.2-1.3-6.3-2.1
		c1.1-1.9,1.8-4.3,3.3-5.7c1.6-1.4,3.9-2.4,6.1-2.8c15.7-3.4,17.8-18.1,26.1-30c-4.5,0.7-7.3,1.6-10,1.4c-2.3-0.2-4.4-1.7-6.6-2.6
		c1.5-2.1,2.6-5.3,4.7-6.1c4.2-1.5,8.8-2.2,13.3-2.3c3.7-0.1,6.1-1.1,8.2-4.1c2.6-3.9,5.6-7.5,8.6-11.4c-3.2-2.1-6.3-3.7-8.9-6
		c-1.1-0.9-1.1-3.1-1.6-4.7c1.6-0.3,3.3-0.6,4.9-0.8c0.4,0,0.8,0.3,1.1,0.4c11.4,4.8,12,4.8,19.2-5c0.9-1.2,0.6-4.1-0.2-5.6
		c-0.7-1.3-3.9-2.7-4.5-2.1c-7.7,5.9-17.8,2.8-26,7.4c-8.7,4.9-18,8.8-26.7,13.6c-6.4,3.6-8.8,3.3-14.3-4.4
		c-7.6,4.9-15.6,9.5-23,14.8C376,229.9,370,235,364,240c-1.5,1.3-2.9,3-3.5,4.8c-2.5,6.8-3.5,7.5-11.1,7c-8,17.8-16.4,35.7-24,53.8
		c-12,28.8-24.4,57.5-34.9,86.9c-5.3,14.9-7.2,31.2-9.9,46.9c-6,35-12.1,70.1-12.9,105.8c-0.2,8.3,1.5,16.6,2.2,24.8
		c1.5,18,3.5,36,4.1,54c1.6,47.5-1.4,95-6.4,142.2c-2.5,23.9-6.9,47.6-10.4,71.4c-0.7,5.1-0.4,10.4-1.7,15.2
		c-2.2,8.4-5.4,16.5-8.3,25.1c-0.3-0.9-0.7-1.4-0.7-1.9c2.5-38.5,5.9-76.9,13-114.9c0.5-2.4,1.9-5.3-2.4-6.2
		c-0.6-0.1-1.1-2.5-1.1-3.7c1.3-26.3,3-52.5,4.1-78.8c0.6-14.1,0.1-28.3,0.1-41.6c-10.8,19.4-13.5,42.4-17.1,64.9
		c-3.6,22.7-5.3,45.8-8.4,68.8c0-13.5-0.7-27.1,0.2-40.5c0.9-13.7,3.4-27.2,4.6-41.3c-0.9,2-1.9,4-2.7,6
		c-23.3,55.2-40.6,112.4-58,169.7c-5,16.5-11.5,32.5-17.5,48.7c-0.5,1.4-2.8,2.2-4.3,3.3c-0.6-1.9-2.1-3.9-1.8-5.7
		c13.1-89.1,40.6-173.9,78.2-255.5c5.1-11,8.9-22.5,13.4-33.8c1.6-4,2.6-8.6,5.3-11.7c5.9-6.9,4.9-14.3,2.1-21.3
		c-3.9-9.9-4.5-20-4.4-30.3c0.3-24.2,0.6-48.5,1.3-72.7c0.7-22.8,6.2-44.8,13.2-66.3c10.9-33.2,22.2-66.2,33.4-99.2
		c1.1-3.1,2.3-6.2,4-9c8.3-14.3,12-30,13.6-46.3c0.3-2.8,1.3-5.6,2.4-8.2c2.6-6.2,7.6-12.3,8-18.6c0.9-16,10.4-29.2,12.1-45.2
		c3.5-33.7,9.6-67.1,14.6-100.6c0.4-2.8,0.8-5.7,1.1-8.5c0.7-5.3,3-8.7,9-9.1c1.4-0.1,3.1-1.4,3.9-2.7c3.5-5.6,7.4-7.7,13.4-5.3
		c7,2.8,13.5,6.7,20.2,10.2c1.1,0.6,2,1.5,3.2,1.7c9.1,1.8,9.1,1.7,9,11.1c1.1,0.1,2.2,0.3,3.3,0.2c6.9-0.8,9.4,2.1,8.4,8.8
		c-0.3,1.9,0.3,4.5,1.5,5.9c16.8,20.7,31.3,42.7,43.7,66.3c0.7,1.4,2.8,2.8,4.4,3c16.4,2.2,31.8-3.7,47.7-6
		c47.3-6.9,92,1.4,134.2,23.1c18.9,9.7,37.5,20,56.9,30.4c3.2-3.3,6.6-7.1,10.2-10.7c15.7-15.9,33.2-28.8,55.6-33.7
		c2.9-0.6,5.7-2.4,8.1-4.2c15.6-11.3,33.6-14.9,52.1-17.1c2.6-0.3,5.9-0.5,7.8,0.8c6,4.2,10.3,2.3,15.1-2.1c2.4-2.3,5.9-4,9.1-4.7
		c2.5-0.5,5.9,0.2,8.1,1.7c3.8,2.5,6.9,6,9.9,8.7c-2.7,16.7-5.1,33.6-8.3,50.2c-3.1,15.5-7.7,30.7-10.6,46.3
		c-2.6,14.1-3.7,28.5-5.6,42.7c-3.2,25.3-6.6,50.5-9.7,75.8c-0.3,2.3,0.1,5.1,1.3,7c23.5,39.3,45.6,79.6,73.3,116.3
		c12.4,16.4,25.5,32.2,37.1,49.2c18.3,26.8,28.2,57.4,38.3,87.9c12.3,37.3,24.2,74.7,31.3,113.4c3.7,20.4,5.4,40.4-3.5,59.9
		c-0.3,0.7-0.4,1.6-0.6,2.4c-1,5.8-1.3,11.9-3.3,17.4c-1.9,5.2-5.6,9.8-7.6,13.2c-2-15.7-3.9-32.6-6.3-49.4
		c-0.5-3.5-0.9-6.4,2.9-7.4c3.8-1,4.2-3.4,3.7-6.5c-2.7-15.6-4.9-31.3-8.5-46.7c-3.2-13.3-8.2-26.1-12.2-39.2
		c-6-19.7-11.8-39.4-17.6-59.1c-11.8-39.9-30.6-75.8-57.4-108.1c-17.3-20.8-31.4-44.2-47-66.4c-4.1-5.8-8.7-11.4-12.8-17.2
		c-8.4-11.7-16.7-23.4-25-35.1c-1.7-2.5-3.1-5.2-4.9-8.3c-1.3,1.7-2.1,2.9-3,3.9c-3,3.7-6.8,5.8-11.3,3.6c-4.6-2.3-5.2-6.8-3.8-11.3
		c1.8-5.9,4.3-11.5,6.5-17.3c10.6-28.5,16.5-58,20.4-88.1c1.9-14.8,4.1-29.6,6.9-44.3c2.6-14,6.1-27.9,9.2-42.3
		c1.1,0.9,2,1.7,3.5,2.9c1.8-10.7,3.5-20.7,5.3-31.3c-30.6,5.2-60,10.1-86.3,25.5c-17.9,10.5-35.4,21.6-53,32.5
		c-3.7,2.3-6.6,4.7-4.2,9.8c0.8,1.7,0.8,4.3,0,6c-1,2.2-2.8,4.6-4.8,5.6c-0.9,0.5-3.5-1.9-5.1-3.2c-1.2-1-1.9-2.6-3.4-4.7
		c-3.5,2.8-7.2,5.1-9.9,8.2c-1.3,1.4-1.4,4.6-1,6.7c1.7,9.1,3.9,18,5.5,27.1c0.3,1.6-1.1,3.5-1.7,5.2c-1.5-1.1-3.5-2-4.3-3.5
		c-4.1-7.8-6.6-16.9-12.1-23.4c-5.7-6.7-3.6-11.1-0.6-17.5c4.7-9.8,1.7-17.4-8.2-22.4c-6-3.1-12.4-5.3-18.7-7.9
		c-9.4-4-18.9-8-28.2-12.2c-24-10.8-49.4-15.5-75.5-16c-16-0.3-32,0.4-48,1c-2.5,0.1-5.5,1.8-7.4,3.6c-7.1,7.1-14.4,14.2-20.8,21.9
		c-10.6,12.9-20.7,26.3-30.7,39.7c-2.5,3.3-3.8,7.5-5.9,11.9c4.1,0.7,7.2,1.1,10.3,1.6c0.2,0.6,0.4,1.3,0.6,1.9
		c-3.5,2.1-7.1,4.2-10.5,6.4c-2,1.3-4.7,2.4-5.6,4.3c-4.4,9.7-8.4,19.7-12.2,29.6c-0.5,1.3,0.6,3.2,1,4.8c0.6,0,1.1,0,1.7,0
		c-1.5,2.1-3,4.1-5.6,7.8c5.1-1.1,8.3-2,11.6-2.6c24.3-4.4,48.3-2.3,72.1,3.3c7.8,1.8,15.3,4.5,22.9-1.1c1.7-1.2,5.2,0,7.9,0.1
		c-0.7,2.5-1.3,5-2.1,7.5c-0.3,0.9-1,1.6-2.2,3.5c10.2,1.5,18,9.1,28.6,7c1-0.2,3.1,0.7,3.1,1.3c1,6.2,6.8,6.5,10.6,9.2
		c14.5,10.4,29.1,20.7,43.5,31.2c5.6,4.1,11.1,8.5,16.4,12.9c2.7,2.2,5.6,4.5,7.4,7.4c12.2,20.2,25.4,40,31.4,63.2
		c2.7,10.4,5.1,20.9,2.7,32.2c-2.4-5.7-4.8-11.4-7.2-17.1c-0.2,0.1-0.4,0.2-0.6,0.2c1.4,10.1,3.3,20.2,4.3,30.3
		c4.4,48.5-2.6,95.5-18.4,141.4c-2.5,7.4-5.1,14.8-7.5,22.2c-1.1,3.4-4.3,6.7-0.1,10.5c0.6,0.5-1.4,4.3-2.5,6.3
		c-3.1,5.5-7.2,10.5-9.3,16.3c-17,45.6-34.2,91.2-50.1,137.2c-11.1,32-20.3,64.7-30.2,97.1c-4.7,15.2-11.5,29.4-20.4,42.5
		c-1.1,1.6-4.2,2.9-6.1,2.6c-1.6-0.2-3.7-2.8-4-4.6c-0.6-2.7-0.1-5.7,0.4-8.5c5.8-33.8,17.5-65.9,28.9-98
		c14.6-41.3,29.7-82.3,44.7-123.5c0.7-2.1,1.5-4.1,2.2-6.2c-0.5-0.3-1-0.5-1.5-0.8c-1.8,3-3.9,5.8-5.2,8.9
		c-13.5,32.6-31.1,63-50.3,92.5c-3,4.6-6.3,9.1-12.9,9.4c-1.6,0.1-3.3,2.7-4.4,4.5c-9.6,15.3-18.9,30.8-28.5,46.1
		c-5.4,8.6-10.6,11-16.3,7.9c-5.7-3.1-6.7-9.8-2.4-18.6c2.8-5.7,5.7-11.3,9.1-18.1c-9.5,4.5-18.1,15.2-27.1,2.2
		c-2.6-3.7-4.6-8.8-4.5-13.2c0.1-4,3.2-8.1,5.2-12.6c2.8,2.3,4.7,3.9,6.6,5.4c9.3,7.2,16.8,4.3,17.7-7.5c0.5-6-0.9-12.2-1.7-18.2
		c-0.4-2.8-1.8-5.5-2.1-8.3c-0.2-1.7,1-3.5,1.8-6.2c10.6,13.3,16.3,14,25,4.1c1.2,0.6,2.4,1.9,3.6,1.9c4.1-0.2,9.2,0.4,11.8-1.8
		c2.4-1.9,3.3-7.4,2.7-10.9c-1.2-7.4-5.7-12.7-14.2-19.8c5.6-6.7,11.2-13.4,16.8-20.1c-0.4-0.3-0.7-0.7-1.1-1
		c-3.4,3.8-6.8,7.6-10.3,11.3c-5.4,5.6-10.9,11.2-16.7,17c-3.2-0.8-7.3-1.8-11.9-2.9c0-2.1,0.8-5-0.2-7.3c-1.3-2.9-3.6-7.2-5.9-7.5
		c-5.2-0.7-8.8-3.4-13-5.7c-5.1-2.9-11.3-1.2-15.6,3.5c-1.3,1.5-2.5,3.1-4.3,5.2c-4.2-9.1-3-21-15.7-25.4
		c-0.4,8.1-1.7,15.7-0.7,22.9c1.1,8.6,1.9,16.7-2.6,24.7c-12-7.4-14.6-20.5-20.2-32.4c-0.3,3.7-0.5,7.5-0.8,11
		c-4.1,1.1-7.8,2.1-12.3,3.3c0.2-3.2,1-6.7,0.5-10c-0.6-4-2.6-7.8-3.5-11.8c-0.7-3.2-1.4-6.7-0.8-9.8c1.2-6-0.6-8.3-6.5-7.2
		c-5.3,1-9,3.9-11.2,8.8c-0.8,1.8-1.6,3.7-2,4.7c-3-2.2-5.9-6-8.6-5.8c-2.7,0.1-5.7,3.8-7.8,6.5c-5.1,6.3-8.1,13.5-4.8,21.7
		c0.8,2,2.2,5.2,3.6,5.4c7.5,1,14.2,9.1,23.1,1.9c-0.8,5.6-2.2,10.8,5,12.1c0.6,0.1,0.7,3,1.2,4.5c2.5,6.7,5,13.4,7.6,20.2
		c0.6-0.1,1.1-0.2,1.7-0.3c0.4-1.8,0.8-3.7,1.6-7.4c1.2,5.9,2.1,10.1,2.9,14.4c2,10.6,7.2,18.6,17.6,22.6c1.3,0.5,2.5,1.9,3.3,3.2
		c4,6.2,7.9,12.5,11.9,18.7c4.1,6.3,8.8,11.5,19.3,8.9c-1.9,3.6-2.7,7-4.1,7.3c-7.8,1.6-12.4,11.9-23.1,6.4c1.7,7.3,3.2,13,4.2,18.8
		c2.7,15.2,5.3,30.3,7.9,45.5c0.3,1.8,0.7,4,0,5.5c-1.3,2.7-3.1,6.7-5.3,7.1c-2.6,0.5-7.2-1.5-8.5-3.7c-3.3-6-5.3-12.8-7.6-18.6
		c-2.8,1.2-6.4,4.2-8.8,3.4c-3.2-1-6.9-4.4-8-7.6c-5.4-15.5-10.2-31.2-14.9-46.9c-2.7-8.8-4.9-17.8-8.6-26.4c0.2,2,0.3,4,0.7,5.9
		c2.7,12.2,5.4,24.5,8.2,36.7c1.1,4.7,1.5,9.3-3.8,11.6c-5.5,2.4-8.4-1.5-10.9-5.4c-1.4-2-2.7-4.2-3.5-6.5c-1.8-5.4-4.6-9.1-10.1-12
		c-4.3-2.3-7.4-7.6-9.7-12.3c-9.9-19.8-19.4-39.9-29-59.9c-0.8-1.6-1.7-3.2-3-4.7c6,20.3,14.4,40,15.9,61.4
		C331.4,893.1,330.4,893.6,329.4,894z M551.1,716.5c9.4-3.5,18.9-6.7,28.1-10.5c4.7-1.9,9.5-4.2,13.2-7.5
		c12.6-11.1,24.8-22.8,37.1-34.3c3.3-3.1,7.2-5.6,10.2-8.9c2.8-3,6-6.5,7-10.3c6.5-25.9,8.5-52.3,7.4-78.9c0-0.5-0.4-1.1-0.7-1.8
		c-1,1.2-1.8,2.2-3.8,4.7c0-5.3-1.4-9.9,0.3-12.3c3.9-5.5,4.8-10.6,2.1-16.7c-2.5-5.7-7.6-10.8-4.3-18c0.4-0.8-0.4-2.5-1-3.5
		c-5.9-9.4-11.8-18.7-17.8-28c-0.1-0.1-0.7,0.1-1.5,0.2c0,0.9,0.3,2,0,2.8c-2.2,5.5-4.1,11.2-7.2,16.2c-0.9,1.5-5.8,2.1-7.6,1
		c-2.1-1.3-3.7-4.8-3.9-7.4c-0.2-3.1,1.2-6.4,2.3-9.5c2-5.7,4.3-11.4,6.5-17.1c-6.9,6.9-13.1,14-19.1,21.3c-0.9,1.1-1.4,3.1-1.1,4.3
		c1.8,5.5-0.3,9.9-3.7,13.6c-7.3,8-15.1,15.6-22.6,23.5c-2.6,2.8-5.1,5.8-6.8,9.1c-2.9,5.9-6,11.6-13,12.8
		c-22.4,3.8-44.9,7.4-68,11.1c-0.6,3.3-4.8,3.3-8.5,4c-11.5,2.2-22.9-1-34.4-0.7c-11.9,0.3-24.2-5.4-36-9.4
		c-11.8-4.1-23.1-9.8-34.8-14.1c-7.5-2.7-9.7-5.1-6.3-12.3c3.2-6.7,7.5-12.9,11.8-20c-1.7-1.6-4.1-5.4-7.1-6.1
		c-9.2-2.1-14.1-6.9-13.7-16.5c0.2-3.5-1.6-4.9-4.8-4.8c-1.8,0.1-4,1-5.5,0.3c-3.7-1.7-7.6-3.5-10.4-6.3c-2.6-2.6-3.3-6.4-0.5-10.1
		c4.9-6.5,9.7-13.2,14.3-19.9c1-1.5,2.3-3.9,1.8-5.3c-2.1-5.6,0.8-7.5,5.3-8.9c1.5-0.4,2.9-1.1,4.9-1.9c-4.6-3.9-7.6-4-11.3,0.4
		c-7.1,8.5-14.5,16.8-22.2,24.7c-2.9,2.9-6.9,4.7-11.3,7.6c2.5,15.1,4.8,31.6,8.1,47.9c1.7,8.5,4.1,17.2,8.1,24.8
		c6.1,11.3,5.6,25,14,35.5c3.3,4,3.2,10.6,5.6,15.5c1.8,3.8,4.2,8.6,7.6,10c6,2.4,9.5,6.2,11.5,11.9c0.1,0.2,0.7,0.2,1.9,0.5
		c0.6-3.1,1.1-6.1,1.8-10.3c1.5,4.1,2.9,7.2,3.7,10.5c1.2,5.1,2.8,9,8.9,6.8c0.9,2.6,1.7,4.8,2.4,6.9c0.4-0.1,0.8-0.2,1.2-0.3
		c0.8-6.8,1.7-13.5,2.5-20.3c0.5-0.1,1-0.3,1.6-0.4c1.1,1.8,2.4,3.5,3.1,5.4c4,10.2,7.8,20.4,11.9,30.6c0.6,1.5,2.4,3.2,3.9,3.5
		c5.5,1.2,11.1,1.9,17.7,2.9c0.2,2.6,0.6,6.5,0.9,10.5c0.6,0.1,1.1,0.1,1.7,0.2c1.2-2.7,2.3-5.5,3.8-8.1c0.7-1.2,2.3-1.9,3.4-2.8
		c0.6,1.4,1.5,2.8,1.6,4.2c0.3,2.7,0.1,5.4,0.1,8.9c6.6-4,12.3-7.5,19.4-11.9c-1.2,4.6-2,7.7-2.4,9.4c2.7,1.1,5,1.4,6.5,2.7
		c2.9,2.4,5.1,2.6,7.9-0.3c4.1-4.3,8.5-8.3,13.1-12.2c2-1.7,4.6-2.7,7-3.9c0.6,0.5,1.2,0.9,1.8,1.4c-1.5,6.1-3.1,12.1-4.6,18.2
		c0.3,0.4,0.7,0.9,1,1.3c2.6-1.5,5.2-3,7.7-4.7c5-3.5,9.8-7.3,15-10.5c3.1-1.9,6.7-2.7,6.8,1.5c4.1,0.9,7.5,1.7,12.3,2.7
		c6.6-4.8,14.6-11.1,25.4-12.3c-3.9,5-7.8,10.1-11.7,15.1c0.4,0.6,0.8,1.1,1.2,1.7c3.4-1.9,7-3.5,10.2-5.8
		c10.7-7.6,21.3-15.4,32-22.9c2.2-1.5,5-2.2,7.7-3.4c0.5,2.1,0.7,3.4,1,4.7c0.5,0.2,1,0.5,1.5,0.7c7.3-11.1,14.5-22.2,22.5-34.4
		c1.2,2.9,1.6,4.6,2.6,6c1.2,1.8,2.8,3.4,4.2,5.1c1.3-1.7,2.7-3.2,3.7-5c1.5-2.8,2.7-5.7,4.4-9.4c3.5,4.8,7,8.2,8.7,12.4
		c1,2.5,0.4,7.5-1.4,9c-1.9,1.5-6.3,0.7-9.2-0.3c-2.2-0.8-3.6-3.6-5.9-6.1c-2.6,4.4-4.8,8.2-7.1,12.1c1.9,1.7,3.7,2.7,4.6,4.2
		c1.6,2.6,2.7,5.5,4,8.2c-2.8,1.1-5.6,2.2-8.4,3.5c-1.6,0.8-4,1.5-4.5,2.8c-2.1,5.2-3.6,10.7-5.5,16.6c-3.2,1.4-7.1,3.8-11.4,4.7
		c-5.3,1.1-7.8,2.8-5.6,8.7c1.8,4.8,0.4,9.7-4.2,11.6c-3.3,1.4-7.7,0.4-11.5-0.2c-1.5-0.2-2.7-2.3-3.8-3.2
		c-6.6,1.3-5.7,5.6-5.1,10.1c0.6,4.4,0.5,9.4-4.3,11.1c-3,1.1-7.5,0.7-10.2-0.8c-2.6-1.5-4.3-5.2-5.6-8.2c-1.2-2.9-1.3-6.2-1.9-9.6
		C544.7,690.6,545.3,697.8,551.1,716.5z M546.6,504.2c-0.8-2.6-2.3-4.8-2-6.7c0.7-4.8-1.9-5.2-5.6-5.9c-6.6-1.3-13.3-2.5-19.4-5.1
		c-21.5-9.2-42.3-20.2-65.7-24.3c-13.1-2.3-26.4-4.6-39.2-8c-12.1-3.2-23.9-3.6-35.9-0.8c-7.2,1.6-14.7,1.6-19.1,10.1
		c-3,5.7-9,9.9-14.2,15.4c2.2,1,4.5,2,6.8,3c0.8-1.9,1.3-4,2.6-5.6c1.8-2.3,3.7-4.8,6.2-6.2c2.6-1.5,5.7-2.5,8.7-2.8
		c7.2-0.7,14.5-1.7,21.6-1.1c7.3,0.6,14.5,1.3,16.9,11.5c1.6,7,2.7,9.6-4.2,12.7c-4.4,1.9-9.2,2.8-14.8,4.4c2.7,0.7,4.4,1.3,6.1,1.5
		c33.3,3.2,66.6,6.4,99.9,9.6c2.6,0.3,5.3,0.5,7.9,0.8c4.6,0.4,9.3,1.3,13.9,1c7.5-0.5,14.9-1.8,22.3-2.7
		C541.7,504.5,544.1,504.4,546.6,504.2z M464.1,418.1c6.6,0,13.4-0.5,20.1,0.2c4,0.4,6.4-0.2,8.8-3.4c13.8-18.4,27.8-36.7,41.7-55
		c2.3-3,4.7-5.9,7.5-9.5c-6.7-2-12.4-3.5-18-5.5c-3.7-1.3-6.1-0.3-8.5,2.7C497.3,370.7,476.9,392.3,464.1,418.1z M585.3,489.8
		c17.7-15.7,27.3-37.3,47.3-50.8c-7.6-12.7-15.2-25.4-23.3-38.9c-3.3,3.8-5.8,6.6-8.2,9.3c-0.3-0.2-0.5-0.4-0.8-0.6
		c0.5-1.6,0.9-3.2,1.4-4.8c-0.4-0.2-0.7-0.3-1.1-0.5c-5.5,8.3-11,16.6-16.2,24.6c4,4.2,7.5,7.9,11.4,12c3.1-3.4,5.8-6.7,8.8-9.8
		c2.8-2.9,5.8-5.6,9.2-8.8C606.4,445.5,589.2,464.1,585.3,489.8z M320,433c17.7-24,33.9-48.9,55.1-69.8c0.7,0.5,1.5,0.9,2.2,1.4
		c-8,13.6-16,27.1-24.9,42.1c8.2-3.2,14.2-5.4,19-11.8c10.8-14.7,22.9-28.5,34.4-42.7c1.1-1.3,2.1-2.7,3.1-4.1
		c-7.4,1.5-14.2,3.6-20.6,6.7c-12.9,6.2-25.6,13-38.4,19.5c-3,1.5-7.3,2.2-8.9,4.6C329.9,395.1,324.3,413.8,320,433z M578.2,367.6
		c-6.4-3.4-11.7-5.8-16.6-9c-5-3.3-7.6-1.7-10.8,2.8c-14.2,19.8-28.8,39.4-43.2,59.1c-0.5,0.7-0.8,1.7-1.5,3.3
		c5.1-0.9,9.5-2.1,13.9-2.4c6.3-0.4,10.6-3.3,14.3-8.2c6.1-8.2,12.5-16.2,19.2-24C560.4,381,565.8,371.4,578.2,367.6z M582.2,368.6
		c-12.2,18-23.2,34.3-34.7,51.1c7.5,1.2,13.9,2.4,20.4,3.2c1.3,0.2,3.2-0.8,4-1.9c8.5-11.8,16.7-23.6,26-36.8
		C593.3,379.6,588.3,374.7,582.2,368.6z M502.5,339.9c-4.8-1.2-9.2-4.4-13.2,0.6c-17,21.1-34,42.1-50.8,63.3
		c-3.3,4.2-2.3,10.6,2,14.9C461,392.6,481.5,366.6,502.5,339.9z M387.8,404.8c19.5-22.5,38.9-44.9,58.7-67.7
		c-12.4,2-24.1,3.1-31.8,14.9c-10.3,15.6-21.8,30.3-32.8,45.4c-0.5,0.7-0.7,1.8-1,2.6C383.4,401.9,385.8,403.5,387.8,404.8z
		 M399.1,415.1c7.3,6.1,7.6,6.3,12.1-0.2c4.5-6.5,8.2-13.5,12.4-20.2c0.6-1,1.7-1.7,2.4-2.6c2.8-3.4,5.6-6.8,8.3-10.3
		c0.8-1.1,1.1-2.8,2-3.7c4.3-4.4,9-8.4,13.2-12.9c8.8-9.7,17.2-19.6,25.9-29.4c-8.6-1.3-14.9,1.2-20.3,8.7
		c-8.6,12-18.3,23.2-27.5,34.8C418,391.1,408.7,403,399.1,415.1z M408.6,110c-1.8,2.3-3.4,3.9-4.5,5.8
		c-8.6,13.3-17.2,26.5-25.6,39.9c-6.9,11.1-12.8,23-20.5,33.6c-4.8,6.6-3.2,12.5-2.5,19.1c2.8-4.2,4.7-8.7,6.9-13
		c13.2-26,30.7-49,49.5-71.1c3.2-3.8,3.5-6.5,0.1-9.9C410.9,113.3,410.2,112,408.6,110z M471.1,508.5c-7.5,1.4-12.3,5.6-13.6,12.3
		c-0.3,1.9-1.7,3.6-1.8,5.4c-0.1,3.7-0.9,8.3,0.9,10.8c1.2,1.7,6.5,0.9,9.9,0.7c3-0.2,6-0.9,9-1.6c3.7-0.9,7.7-1.4,11-3.2
		c6.4-3.5,7.7-10.7,2-15.3C483.5,513.6,476.9,511.5,471.1,508.5z M375.4,206.9c0.4,0.5,0.8,0.9,1.2,1.4c5.5-4.1,11.7-7.6,16.5-12.4
		c13.5-13.7,26.5-27.9,39.7-42c0.9-1,2-3.2,1.5-4c-4.2-7-8.7-13.7-13.7-21.4c-7.2,8.7-13.9,16.6-20.5,24.5c2.2-0.3,3.2-1.6,4.3-2.7
		c4.1-4,7.9-8.3,12.4-11.7c3.2-2.4,6.9-1.3,9,2.3c2.1,3.6,0.3,6.2-2.7,8.3c-1.8,1.3-3.8,2.6-5.2,4.3
		C403.6,171.2,389.5,189.1,375.4,206.9z M372.3,500.5c4.3,6,3.2,14.4,12.5,15.3c1.4,0.1,2.5,1.9,3.9,2.9c6.2,4.3,12.4,9.7,20.6,7.1
		c4.8-1.6,9-5.2,13-7.6c-1.9-2.6-2.9-4.3-4.2-5.7c-1.5-1.6-3.8-4.6-4.7-4.2c-9.6,3.7-16.5-2.3-24.1-6.1c-0.5-0.3-1.2-0.3-1.8-0.3
		C383,501.4,378.5,501,372.3,500.5z M385.5,88c-4.2,0.6-6,1.1-7.8,1c-6.6-0.4-12.4,1.4-16.7,6.3c-8.2,9.5-14.4,26.1-12.3,40
		c1.2-3.9,2.3-7.7,3.4-11.5c0.7,0.1,1.4,0.2,2,0.3c0.3,1.9,0.6,3.8,1.1,6.4C365.5,116.1,375.2,102.4,385.5,88z M545.2,451.8
		c-2.8-5.2-5.7-10.5-9.3-17.1c-13.1,1.8-28.4,1.7-40.8,11.8c16,2.3,31.9,3.9,47.7,5.4C544,452,545.1,451.8,545.2,451.8z
		 M355.6,172.9c4.9-10.1,8.9-18.8,13.4-27.2c4.6-8.7,9.4-17.3,14.6-25.6c4.9-7.8,10.4-15.2,15.7-22.8c-0.7-0.5-1.4-1-2.1-1.6
		c-1.7,1.8-3.7,3.4-5.1,5.4c-10.6,14.8-20.8,30-31.8,44.6C354.1,153.8,355.1,162.3,355.6,172.9z M429.7,555.1
		c1.1-4.8,3.5-8.9,2.5-11.9c-1.4-4.4-4.4-9.4-8.2-11.5c-1.9-1.1-7.1,3.5-10.6,5.8c-1.5,1-2.5,2.7-3.6,4.2c-2.2,3.1-1.9,5.9,1.9,7.4
		C417.6,551.2,423.6,553.1,429.7,555.1z M565.8,450.4c3,2.5,8,4.6,8.6,7.6c0.5,3-3.4,6.7-6.1,11.5c2.7-1,5.6-1.1,6.9-2.5
		c4.3-4.9,8.2-10.2,12-15.5c0.7-1,0.8-3.4,0.1-4.1c-4.7-5.1-10.6-7.7-16.6-8.5C568.7,443.6,567.1,447.4,565.8,450.4z M440.6,533.2
		c5.4,0.2,10.2-4.4,10.4-9.9c0.2-5.3-4.4-10.4-9.8-10.7c-5.2-0.4-10.1,4.3-10.3,10C430.7,528.2,435.1,533,440.6,533.2z M453.3,174
		c-3.3-4.1-6.1-7.5-9.4-11.7c-7.4,6.9-14.4,13.4-21.4,19.9c0.3,0.3,0.5,0.6,0.8,0.8c1.8-0.4,3.7-0.7,5.8-1.2c-0.3,1.6-0.5,2.7-1,5.7
		C437.2,182.6,444.8,178.6,453.3,174z M507.3,528.7c-2.7,2.5-6.3,5.9-10.9,10.2c12.2,1,9.6,10.7,12.9,16.5c2.1-0.4,4.3-0.7,6.4-1.3
		c5.3-1.7,6.7-7.8,3-11.8C515.1,538.5,512,534.4,507.3,528.7z M389.1,168.3c-9.6,12.7-20.5,27.3-31.6,41.7
		c-3.7,4.8-2.4,9.2,0.2,15.9C369.1,205.1,379.6,185.8,389.1,168.3z M534.4,529.5c0.4-3.6,6.1-8.9-1.2-12.7c-2.4-1.3-6.2-0.5-9.2,0.2
		c-2.5,0.6-6.4,2.1-6.6,3.7c-0.4,2.8,0.7,6.6,2.6,8.7c1.4,1.5,5,1.2,7.7,1.3C529.4,530.7,531.2,530.1,534.4,529.5z M335.1,430
		c-6.5,12.9-20.3,20.5-20.3,36.5c8.7-10.6,17.4-21.3,26.4-32.2C339.1,432.8,337.6,431.8,335.1,430z M476.4,552.7
		c-0.5-4.5-2.8-7.4-7.5-7.3c-4.7,0-7.1,3-7.2,7.5c-0.1,4.5,2.9,6.7,7,6.9C473.4,560,475.9,557.2,476.4,552.7z M352.4,422.2
		c0.2,0.6,0.3,1.1,0.5,1.7c5.9,2,11.7,3.9,18.4,6.2c-0.9-5.6-1.7-10.2-2.6-16C362.7,417,357.6,419.6,352.4,422.2z M557,502.8
		c0.1,0.6,0.2,1.3,0.3,1.9c4.2-1.2,9.6-1.2,12.2-3.9c3.2-3.4,4.2-9,6.5-14.6C569.1,492.1,563.1,497.5,557,502.8z M458,444.6
		c6,3.5,19.1-6.7,20.8-16.8C471.9,433.3,465.1,438.9,458,444.6z M370.7,669.1c2.1,12,3.9,22.2,6,33.8
		C380.4,696.1,376.8,673.7,370.7,669.1z M648.1,485.2c-2-8.5-4.1-16.9-6.4-26.5C636.1,467.4,637.9,475.1,648.1,485.2z M449.9,560.1
		c4.6,2.4,8.5,2.7,10.6-3.6c-2.6-1.9-5.2-3.8-7.8-5.7C451.6,554.1,450.8,556.9,449.9,560.1z M525.9,729.4c4.6-3,3.2-15.3-1.9-21.4
		C524.6,714.8,525.2,721.5,525.9,729.4z M595.8,640.9c-3.3,3.6-6.2,6.7-9.1,9.9c-0.3,0.3-0.6,0.6-0.8,0.9c-0.3,0.9-0.7,1.9-0.5,2.7
		c0.1,0.4,1.3,1,1.9,1C590.7,655.2,596.9,645.1,595.8,640.9z M390,540.7c0.5-0.5,1-1,1.5-1.5c-1.7-2.3-3.2-5-5.3-6.7
		c-0.6-0.5-3.4,1.8-6.6,3.6C384,538,387,539.4,390,540.7z"/>
	<path d="M935.1,857.5c-9.5,7.4-19.5,14.2-28.4,22.2c-33.4,30.2-66.5,60.7-99.6,91.1c-2.5,2.3-5,5.1-8.4,2c-3.3-3-1.2-6.2,1.1-8.6
		c12.3-12.7,24.2-25.7,37.1-37.8c23.8-22.4,47.5-44.9,72.4-66c11.8-10,26.2-16.8,39.4-25c1.4-0.8,3-1.3,4.6-1.8
		c4.8-1.4,10-3.3,13.5,1.9c3.4,5.1-1,8.8-3.7,12.5c-9.7,13-19.4,26-29,39c-0.7,0.9-1.1,2.1-1.3,2.5c5.9-1.2,12.1-4,17.8-3.2
		c8.2,1.2,6,9.3,6.7,15.2c0.3,0.2,0.6,0.7,0.9,0.7c11.5,0,17.1,8.2,10.9,18.2c-6.1,9.8-13.6,19.2-22.3,26.8
		c-12.1,10.7-25.9,19.5-38.9,29c-0.8,0.6-1.8,1.3-2.7,1.4c-10.5,1.3-13.4,9.1-15.4,17.8c-1,4.3-2.5,8.5-3.3,13.1
		c19.4-19.3,39.9-37,63.7-50.3c23.7-13.1,47.7-25.9,76.1-23c0.2-1,0.5-1.5,0.4-1.8c-14.8-37.4-29.8-74.8-44.3-112.3
		c-16.8-43.4-35.5-85.8-57-127c-4.9-9.4-11.8-17.7-18.4-26.1c-5.8-7.3-6.7-11.9-1.7-15.9c8.1-6.4,14.1-5.8,19.5,2.7
		c15.1,23.5,29.6,47.4,40,73.5c16.6,41.4,33.8,82.5,50.1,124c10.6,26.7,20.3,53.8,30.2,80.9c1.2,3.4,1.8,7.2,1.7,10.8
		c-0.1,2.1-1.6,5.2-3.3,5.9c-1.7,0.7-4.9-0.5-6.5-1.9c-2.6-2.2-4.1-5.6-6.6-8c-1.2-1.1-4.5-2-5.2-1.4
		c-11.7,11.8-27.4,16.4-41.6,23.5c-41.6,20.7-76.2,49.8-104.5,86.5c-0.8,1-1.6,1.9-2.3,2.9c-3.4,4.4-7.6,6.6-12.9,3.9
		c-5.3-2.7-6.3-7.4-4.7-12.6c8-27,15.2-54.2,24.3-80.8c10.1-29.1,21.6-57.8,39-83.6c4.5-6.6,9.1-13.1,13.7-19.7
		C936,858.4,935.6,857.9,935.1,857.5z M960.8,913c-0.4-0.7-0.8-1.3-1.2-2c-6,3.6-12.3,6.8-17.8,10.9c-6.2,4.7-11.7,10.3-17.7,15.3
		c-4.4,3.7-9,7.1-15.6,4.7c-2.3,6.3-4.4,12.2-6.7,18.6C917.2,956,957.3,923.4,960.8,913z M946.8,897.2
		c-12.6,4.9-19.7,15.7-27.6,25.6C928.8,914.7,943.2,912,946.8,897.2z"/>
	<path d="M206.9,208.8c-19.4,2.7-29.1-11.2-25.8-34.4c-10.5,8.2-19.1,17-25.2,28.1c-1,1.8-1.8,3.7-2.9,5.4c-2.7,4-6.6,5.7-11.2,4.1
		c-4.6-1.6-7.1-5.2-6.6-10c0.5-4.4,1.6-8.9,3.2-13.1c6.9-18.9,14-37.8,21.2-56.6c1.6-4.1,1.1-6-3-8.1c-10.8-5.4-21.4-11.4-32-17.3
		c-6.6-3.7-8.6-7.8-6.4-12.1c2.2-4.3,9.1-6.4,14.8-3.8c9.7,4.4,19.2,9.3,28.8,14c2.2,1.1,4.4,2,7.3,3.2c1.9-4.6,3.7-8.7,5.4-12.9
		c7.5-18.9,14.8-37.9,22.4-56.8c1.6-4,3.4-8.2,6.2-11.2c2-2.1,6.4-3.8,9-3.2c2.1,0.5,4.1,5,4.3,7.8c0.3,4.2-0.4,8.7-1.8,12.7
		c-7.1,21.5-14.5,42.8-21.8,64.2c-0.8,2.3-1.7,4.6-2.8,7.4c2.8,1.1,5.1,2.4,7.6,3c16.2,3.8,32.4,7.5,48.6,11
		c5.1,1.1,8.3,3.6,8.7,8.8c0.4,4.8-3.3,8.9-8.7,9.4c-4.5,0.4-9,0.2-13.5,0c-7.7-0.4-14.3,2.4-20.2,6.2c7.5,2.5,15.5,4,22.3,7.6
		c17.8,9.6,26.2,40.2,16.7,58.1c-4.6,8.7-18.2,12.4-29,7.8C214.2,224.6,208,219,206.9,208.8z M206.1,200.9c5.6-2.1,9.5-4.7,13.7-5
		c6.8-0.6,5.7,4.9,6.3,9.4c0.2,1.5,3.6,3,5.7,3.5c0.9,0.2,3.1-1.7,3.5-3c4.9-17.9-8.9-32.2-26.9-27.9c-4.1,1-6.4,3.5-5.8,7.4
		C203.4,190.7,205,196.2,206.1,200.9z M206.6,143.1c-3.8-1.2-6.6-2.2-9.5-3.1c-15-4.9-15-4.9-20.7,10.2c-1.9,5-3.6,10-6,16.5
		C183.3,158.3,194.4,151,206.6,143.1z"/>
	<path d="M165.9,625.8c-35.6-5.6-71.2-12.2-107.6-7.7c-12.9,1.6-15.3,0.1-20.3-12.2c-7.1-17.5-6.2-34.5,2.7-51.1
		c14.1-26.2,45.3-31.3,67-11c2.7,2.5,5.1,5.3,7.7,8c0.7-0.4,1.3-0.6,1.6-1c15.8-21.9,42.3-25.4,64-8.3c20,15.7,26.7,41.9,17.2,67.9
		c-1.3,3.6-2.1,6.2,1.4,9.2c3.4,2.9,2.2,5.7-1.9,7.4c-5.4,2.2-10.7,4.6-15.9,7.1C173.5,638.1,166.5,634.8,165.9,625.8z M183.2,587.7
		c-0.5-14.5-4.3-26.6-17-34.3c-9.5-5.8-19.6-6.5-28.5-0.4c-9.1,6.3-10.9,16.4-9,27.1c0.8,4.7,2.5,9.2,2.8,13.9
		c0.4,5.8,3.4,7.4,8.6,8c7.7,0.8,15.4,2.4,23.1,4c16.3,3.5,18,2.3,19.8-14.6C183.1,589.8,183.1,588.4,183.2,587.7z M112.4,598.5
		c-0.7-5.8-1.5-10-1.8-14.3c-0.8-15.4-9.3-26.1-21.9-33.5c-4-2.3-10-3-14.6-2.1c-18.7,3.7-31.7,32.9-23.9,49.8
		C71,598.5,91.2,598.5,112.4,598.5z"/>
	<path d="M748.2,606.6c-5.3,17.4-11.4,34.7-15.7,52.4c-6.4,26-20,48.4-33.3,71.1c-37.7,64.2-68.6,131.5-91.8,202.2
		c-3.2,9.8-6.3,19.6-9.4,29.3c-2.8,8.9-11.9,12-19.4,6.5c-4.4-3.2-3.2-7.6-1.9-11.8c4.6-14.1,9-28.2,13.9-42.1
		c24.7-70.4,58-136.8,95-201.5c18.7-32.8,37.4-65.7,56.1-98.6c1.6-2.8,3.4-5.5,5.1-8.3C747.2,606.1,747.7,606.4,748.2,606.6z"/>
	<path d="M142.5,430c-1.5-6.1-3.4-12.2-4.6-18.4c-3.5-19,3.1-28.4,22-32c2.2-0.4,4.3-0.8,7.3-1.4c-1.3-1.8-2-3.1-3-4.2
		c-9.4-9.8-12.9-21.8-13.2-34.9c-0.2-9.8,3.7-16.3,10.8-19c7.7-2.8,21.7,0.3,26.4,6c0.5,0.6,0.6,1.4,1.4,3.2
		c-4.1,0.8-7.8,1.4-11.5,2.2c-8.7,2-9.3,3.1-7.6,11.8c1.8,9.5,6,17.3,16.4,22.6c0-2.8,0.2-4.7,0-6.5c-0.4-3.9-1.2-7.7-1.6-11.6
		c-0.8-9.1,3.8-15.5,12.4-17.9c7.7-2.2,15.3-4.9,23-6.7c2.6-0.6,6.9-0.3,8.2,1.4c1.5,2,1.6,6.3,0.5,8.8c-3.4,7.7-9.6,12.9-17.9,14.7
		c-4.8,1-5.5,3.1-4.8,7.7c1.6,10.9,1.6,21.6-10,29.2c2.2,1.4,4.1,2.2,5.4,3.6c2.8,2.9,6.1,5.7,7.8,9.2c2.8,5.7,0.9,9.1-5.5,8.9
		c-6-0.1-12.1-1.7-17.8-3.6c-8-2.7-15.9-5.4-24.6-4.1c-5.2,0.8-6.8,2.7-6,8.2c2.8,20,14.5,33,31.7,41.9c2.9,1.5,5.9,2.9,8.8,4.5
		c6,3.4,8,8.3,5.7,13.2c-2.5,5.2-8,6.8-14.3,3.7c-11.8-5.9-23.3-12.1-35.1-18.1c-7-3.6-14.1-6.7-20.9-10.5c-2.3-1.3-3.7-4.2-5.5-6.4
		c2.5-1.8,4.7-4.3,7.5-5.3C136.5,429.3,139.6,430,142.5,430z"/>
	<path d="M199.4,270.4c5.8-8.6,11.4-17.3,17.3-25.7c1.3-1.9,3.6-3.1,5.4-4.6c0.8,2.2,2.1,4.4,2.2,6.7c0.3,4.5,0.6,9.2-0.5,13.4
		c-2.3,8.8-5.4,17.4-8.4,26.6c4.7,3.5,10.9,7.7,16.7,12.3c1.5,1.2,1.9,3.6,2.8,5.4c-1.8,0.8-3.5,2-5.3,2.2
		c-13.5,1.7-26.1-2.7-38.4-7.1c-25.9-9.3-51.6-19.2-77.4-28.7c-4-1.5-8.2-2.6-12.4-3.8c-4.5-1.2-7.4-3.9-7-8.7
		c0.4-4.8,3.7-7.3,8.3-7.5c4.3-0.1,8.8-0.2,12.8,1c17,5.3,33.9,11.1,50.9,16.8c2.9,1,5.6,2.2,9.2,3.5c-0.8-9.5-1.9-18-2.2-26.5
		c-0.4-9.1,3.4-14.9,11-17.2c2-0.6,5-0.1,6.6,1.1c0.9,0.7,0,3.9-0.2,5.9c-0.2,2-1.2,4.1-0.8,5.9c2.3,9.6,4.9,19.1,7.4,28.6
		C198.2,270.1,198.8,270.3,199.4,270.4z"/>
	<path d="M754.6,311.4c-1.6-7.7-3.3-15.4-4.9-23.2c-1,2.1-2.1,4.4-3.2,6.7c-0.4,0-0.8-0.1-1.2-0.1c0-1.3-0.2-2.6,0-3.9
		c0.8-4.2,2-8.3,2.7-12.6c2.8-18.8,9.4-36.1,20.8-51.4c4.5-6,10.4-10,18.3-9.5c5.2,0.3,10.3,3,9.8,8.1c-0.4,4.5-4.3,8.7-7,12.8
		c-0.2,0.3-3.3-1.4-6.3-2.7c-1.3,1.7-3.5,4.3-5.3,7.1c-4.4,7.2-8.7,14.4-12.7,21.8c-0.7,1.2-0.2,3.2,0.2,4.7c0.6,2.1,1.8,4,2.7,6.1
		c6.2-0.4,10.1,2,9.9,8.5c-0.3,9.8-1.7,19.6-3.1,29.3c-0.3,1.9-2.9,3.5-4.4,5.2c-1.5-1.8-4.2-3.6-4.2-5.5
		c-0.3-7.5,0.3-15.1,0.5-22.6c0.1-2.8,0.4-5.5,0.6-9c-3.3,10.7-6.3,20.5-9.3,30.4C757.1,311.5,755.9,311.5,754.6,311.4z"/>
	<path d="M885,657.6c4.8,2.5,9.3,4.3,13.2,7.1c2.9,2.1,3.2,5.4-1.4,6c-12.8,1.5-20.2,10.5-27,19.7C856,709,842.7,728,829.6,747.1
		c-3.6,5.2-5.8,11.4-9.1,16.8c-0.8,1.4-3.5,1.6-5.4,2.3c-0.4-1.8-1.7-4.1-1-5.4c12.2-24.6,19.3-51.8,36.9-73.5
		c6.6-8.1,13.6-15.9,21.1-23.1C875.3,661.1,880.3,659.9,885,657.6z"/>
	<path d="M127.6,477.9c21.2,1.4,40.7,8.2,59.8,16.4c1.8,0.8,4.1,1.9,4.9,3.5c1.3,2.7,3,6.4,2.1,8.8c-0.9,2.4-4.6,5.1-7.2,5.3
		c-4.1,0.4-8.5-0.9-12.6-2.1c-17.3-5-34.6-10.2-51.9-15.3c-2.2-0.6-4.7-0.8-6.3-2.2c-1.8-1.6-3.9-4.2-3.8-6.3c0.1-2,2.3-4.9,4.3-5.8
		C120.2,478.9,124,478.7,127.6,477.9z"/>
	<path d="M67.5,482.5c-1.1-0.1-3.6-0.1-6-0.5c-6.2-0.9-9.7-5-9.5-10.9c0.2-5.6,4.3-10.3,10.4-10c8.2,0.4,16.3,1.8,24.4,3
		c3.2,0.5,6.4,1.5,9.3,2.7c1.4,0.6,3,2.2,3.3,3.6c0.3,1.1-1.1,3.1-2.2,3.8C87.3,480.7,79.9,482.8,67.5,482.5z"/>
	<path d="M277.3,826.2c6,14.9,11.6,28.7,13.7,44.9C272.2,859.8,272.8,844.2,277.3,826.2z"/>
	<path d="M791.7,320.4c-1.2-5.8-2.4-11.6-3.6-17.4c0.6-0.1,1.3-0.3,1.9-0.4c1.1,5.8,2.1,11.7,3.2,17.5
		C792.7,320.2,792.2,320.3,791.7,320.4z"/>
	<path d="M395.6,597c-5.9-2.3-11.7-4.2-17-7c-3.5-1.8-5.7-5.3-2.7-9.1c2.8-3.6,6.2-3,9.6-0.2c4,3.2,8.3,6,12.2,9.3
		c1.1,1,2.1,3,1.9,4.4C399.5,595.2,397.2,595.9,395.6,597z"/>
	<path d="M639.6,598.4c0.2-4.9-3.7-11.6,5.4-12.5C643.2,590.1,641.4,594.2,639.6,598.4z"/>
</g>
</svg>
