<?xml version="1.0" encoding="UTF-8"?>
<!-- Generated by Pixelmator Pro 3.2.3 -->
<svg width="1080" height="1080" viewBox="0 0 1080 1080" xmlns="http://www.w3.org/2000/svg" xmlns:xlink="http://www.w3.org/1999/xlink">
    <g id="g1">
        <path id="path1" fill="#ff9400" stroke="none" d="M 329.399994 894 C 315.700012 882 313.200012 863.700012 304.299988 847.200012 C 304.5 850.200012 305.100006 851.799988 304.700012 853.099976 C 303.899994 855.599976 303 859.400024 301.200012 859.900024 C 299.200012 860.5 295.5 858.900024 294 857.099976 C 291.399994 854 289.799988 850.099976 288.100006 846.400024 C 286.700012 843.400024 286.100006 840.099976 284.600006 837.200012 C 274.700012 818.400024 278.700012 798.900024 280.700012 779.299988 C 283.899994 746.400024 287.299988 713.400024 288.700012 680.400024 C 289.899994 652.5 288.600006 624.5 287.600006 596.599976 C 287.200012 586 284.700012 575.5 283.399994 564.900024 C 282.5 557.200012 282.200012 549.400024 281.600006 541.700012 C 278.100006 499.599976 285 458.700012 297.200012 418.599976 C 299.200012 411.900024 301.600006 405.299988 307.799988 401 C 309.299988 400 309.899994 397.599976 310.700012 395.700012 C 316.799988 381.700012 323.600006 368.099976 333.799988 356.599976 C 342.700012 346.5 353.200012 338.900024 366.700012 336.200012 C 368.5 335.799988 370.200012 335.099976 371.899994 334.299988 C 376.100006 332.5 378.600006 333.400024 378.5 339 C 392.299988 333.299988 405.600006 327.799988 419 322.299988 C 414.799988 307.599976 419.200012 295.099976 423.600006 281.5 C 420.200012 282.5 417.600006 283.700012 414.899994 283.799988 C 412.799988 283.900024 410.700012 282.5 408.600006 281.700012 C 409.700012 279.799988 410.399994 277.400024 411.899994 276 C 413.5 274.599976 415.799988 273.599976 418 273.200012 C 433.700012 269.799988 435.799988 255.099976 444.100006 243.200012 C 439.600006 243.900024 436.799988 244.799988 434.100006 244.599976 C 431.799988 244.400024 429.700012 242.900024 427.5 242 C 429 239.900024 430.100006 236.700012 432.200012 235.900024 C 436.399994 234.400024 441 233.700012 445.5 233.599976 C 449.200012 233.5 451.600006 232.5 453.700012 229.5 C 456.299988 225.599976 459.299988 222 462.299988 218.099976 C 459.100006 216 456 214.400024 453.399994 212.099976 C 452.299988 211.200012 452.299988 209 451.799988 207.400024 C 453.399994 207.099976 455.100006 206.799988 456.700012 206.599976 C 457.100006 206.599976 457.5 206.900024 457.799988 207 C 469.200012 211.799988 469.799988 211.799988 477 202 C 477.899994 200.799988 477.600006 197.900024 476.799988 196.400024 C 476.100006 195.099976 472.899994 193.700012 472.299988 194.299988 C 464.600006 200.200012 454.5 197.099976 446.299988 201.700012 C 437.600006 206.599976 428.299988 210.5 419.600006 215.299988 C 413.200012 218.900024 410.799988 218.599976 405.299988 210.900024 C 397.700012 215.799988 389.700012 220.400024 382.299988 225.700012 C 376 229.900024 370 235 364 240 C 362.5 241.299988 361.100006 243 360.5 244.799988 C 358 251.599976 357 252.299988 349.399994 251.799988 C 341.399994 269.599976 333 287.5 325.399994 305.599976 C 313.399994 334.400024 301 363.099976 290.5 392.5 C 285.200012 407.400024 283.299988 423.700012 280.600006 439.400024 C 274.600006 474.400024 268.5 509.5 267.700012 545.200012 C 267.5 553.5 269.200012 561.799988 269.899994 570 C 271.399994 588 273.399994 606 274 624 C 275.600006 671.5 272.600006 719 267.600006 766.200012 C 265.100006 790.099976 260.700012 813.799988 257.200012 837.599976 C 256.5 842.700012 256.799988 848 255.5 852.799988 C 253.300003 861.200012 250.100006 869.299988 247.199997 877.900024 C 246.899994 877 246.5 876.5 246.5 876 C 249 837.5 252.399994 799.099976 259.5 761.099976 C 260 758.700012 261.399994 755.799988 257.100006 754.900024 C 256.5 754.799988 256 752.400024 256 751.200012 C 257.299988 724.900024 259 698.700012 260.100006 672.400024 C 260.700012 658.299988 260.200012 644.099976 260.200012 630.799988 C 249.399994 650.200012 246.699997 673.200012 243.100006 695.700012 C 239.5 718.400024 237.800003 741.5 234.699997 764.5 C 234.699997 751 234 737.400024 234.899994 724 C 235.800003 710.299988 238.300003 696.799988 239.5 682.700012 C 238.600006 684.700012 237.600006 686.700012 236.800003 688.700012 C 213.5 743.900024 196.199997 801.099976 178.800003 858.400024 C 173.800003 874.900024 167.300003 890.900024 161.300003 907.099976 C 160.800003 908.5 158.5 909.299988 157 910.400024 C 156.399994 908.5 154.899994 906.5 155.199997 904.700012 C 168.300003 815.599976 195.800003 730.799988 233.399994 649.200012 C 238.5 638.200012 242.300003 626.700012 246.800003 615.400024 C 248.399994 611.400024 249.399994 606.799988 252.100006 603.700012 C 258 596.799988 257 589.400024 254.199997 582.400024 C 250.300003 572.5 249.699997 562.400024 249.800003 552.099976 C 250.100006 527.900024 250.399994 503.599976 251.100006 479.400024 C 251.800003 456.599976 257.299988 434.599976 264.299988 413.099976 C 275.200012 379.900024 286.5 346.900024 297.700012 313.900024 C 298.799988 310.799988 300 307.700012 301.700012 304.900024 C 310 290.599976 313.700012 274.900024 315.299988 258.599976 C 315.600006 255.799988 316.600006 253 317.700012 250.400024 C 320.299988 244.200012 325.299988 238.099976 325.700012 231.799988 C 326.600006 215.799988 336.100006 202.599976 337.799988 186.599976 C 341.299988 152.900024 347.399994 119.5 352.399994 86 C 352.799988 83.200012 353.200012 80.299988 353.5 77.5 C 354.200012 72.200012 356.5 68.799988 362.5 68.400024 C 363.899994 68.299988 365.600006 67 366.399994 65.700012 C 369.899994 60.099976 373.799988 58 379.799988 60.400024 C 386.799988 63.200012 393.299988 67.099976 400 70.599976 C 401.100006 71.200012 402 72.099976 403.200012 72.299988 C 412.299988 74.099976 412.299988 74 412.200012 83.400024 C 413.299988 83.5 414.399994 83.700012 415.5 83.599976 C 422.399994 82.799988 424.899994 85.700012 423.899994 92.400024 C 423.600006 94.299988 424.200012 96.900024 425.399994 98.299988 C 442.200012 119 456.700012 141 469.100006 164.599976 C 469.799988 166 471.899994 167.400024 473.5 167.599976 C 489.899994 169.799988 505.299988 163.900024 521.200012 161.599976 C 568.5 154.700012 613.200012 163 655.400024 184.700012 C 674.299988 194.400024 692.900024 204.700012 712.299988 215.099976 C 715.5 211.799988 718.900024 208 722.5 204.400024 C 738.200012 188.5 755.700012 175.599976 778.099976 170.700012 C 781 170.099976 783.799988 168.299988 786.200012 166.5 C 801.799988 155.200012 819.799988 151.599976 838.299988 149.400024 C 840.900024 149.099976 844.200012 148.900024 846.099976 150.200012 C 852.099976 154.400024 856.400024 152.5 861.200012 148.099976 C 863.599976 145.799988 867.099976 144.099976 870.299988 143.400024 C 872.799988 142.900024 876.200012 143.599976 878.400024 145.099976 C 882.200012 147.599976 885.299988 151.099976 888.299988 153.799988 C 885.599976 170.5 883.200012 187.400024 880 204 C 876.900024 219.5 872.299988 234.700012 869.400024 250.299988 C 866.799988 264.400024 865.700012 278.799988 863.799988 293 C 860.599976 318.299988 857.200012 343.5 854.099976 368.799988 C 853.799988 371.099976 854.200012 373.900024 855.400024 375.799988 C 878.900024 415.099976 901 455.400024 928.700012 492.099976 C 941.099976 508.5 954.200012 524.299988 965.799988 541.299988 C 984.099976 568.099976 994 598.700012 1004.099976 629.200012 C 1016.400024 666.5 1028.300049 703.900024 1035.400024 742.599976 C 1039.099976 763 1040.800049 783 1031.900024 802.5 C 1031.599976 803.200012 1031.5 804.099976 1031.300049 804.900024 C 1030.300049 810.700012 1030 816.799988 1028 822.299988 C 1026.099976 827.5 1022.400024 832.099976 1020.400024 835.5 C 1018.400024 819.799988 1016.5 802.900024 1014.099976 786.099976 C 1013.599976 782.599976 1013.200012 779.700012 1017 778.700012 C 1020.799988 777.700012 1021.200012 775.299988 1020.700012 772.200012 C 1018 756.599976 1015.799988 740.900024 1012.200012 725.5 C 1009 712.200012 1004 699.400024 1000 686.299988 C 994 666.599976 988.200012 646.900024 982.400024 627.200012 C 970.599976 587.299988 951.799988 551.400024 925 519.099976 C 907.700012 498.299988 893.599976 474.900024 878 452.700012 C 873.900024 446.900024 869.299988 441.299988 865.200012 435.5 C 856.799988 423.799988 848.5 412.099976 840.200012 400.400024 C 838.5 397.900024 837.099976 395.200012 835.299988 392.099976 C 834 393.799988 833.200012 395 832.299988 396 C 829.299988 399.700012 825.5 401.799988 821 399.599976 C 816.400024 397.299988 815.799988 392.799988 817.200012 388.299988 C 819 382.400024 821.5 376.799988 823.700012 371 C 834.299988 342.5 840.200012 313 844.099976 282.900024 C 846 268.099976 848.200012 253.299988 851 238.599976 C 853.599976 224.599976 857.099976 210.700012 860.200012 196.299988 C 861.299988 197.200012 862.200012 198 863.700012 199.200012 C 865.5 188.5 867.200012 178.5 869 167.900024 C 838.400024 173.099976 809 178 782.700012 193.400024 C 764.799988 203.900024 747.299988 215 729.700012 225.900024 C 726 228.200012 723.099976 230.599976 725.5 235.700012 C 726.299988 237.400024 726.299988 240 725.5 241.700012 C 724.5 243.900024 722.700012 246.299988 720.700012 247.299988 C 719.799988 247.799988 717.200012 245.400024 715.599976 244.099976 C 714.400024 243.099976 713.700012 241.5 712.200012 239.400024 C 708.700012 242.200012 705 244.5 702.299988 247.599976 C 701 249 700.900024 252.200012 701.299988 254.299988 C 703 263.400024 705.200012 272.299988 706.799988 281.400024 C 707.099976 283 705.700012 284.900024 705.099976 286.599976 C 703.599976 285.5 701.599976 284.599976 700.799988 283.099976 C 696.700012 275.299988 694.200012 266.200012 688.700012 259.700012 C 683 253 685.099976 248.599976 688.099976 242.200012 C 692.799988 232.400024 689.799988 224.799988 679.900024 219.799988 C 673.900024 216.700012 667.5 214.5 661.200012 211.900024 C 651.799988 207.900024 642.299988 203.900024 633 199.700012 C 609 188.900024 583.599976 184.200012 557.5 183.700012 C 541.5 183.400024 525.5 184.099976 509.5 184.700012 C 507 184.799988 504 186.5 502.100006 188.299988 C 495 195.400024 487.700012 202.5 481.299988 210.200012 C 470.700012 223.099976 460.600006 236.5 450.600006 249.900024 C 448.100006 253.200012 446.799988 257.400024 444.700012 261.799988 C 448.799988 262.5 451.899994 262.900024 455 263.400024 C 455.200012 264 455.399994 264.700012 455.600006 265.299988 C 452.100006 267.400024 448.5 269.5 445.100006 271.700012 C 443.100006 273 440.399994 274.099976 439.5 276 C 435.100006 285.700012 431.100006 295.700012 427.299988 305.599976 C 426.799988 306.900024 427.899994 308.799988 428.299988 310.400024 C 428.899994 310.400024 429.399994 310.400024 430 310.400024 C 428.5 312.5 427 314.5 424.399994 318.200012 C 429.5 317.099976 432.700012 316.200012 436 315.599976 C 460.299988 311.200012 484.299988 313.299988 508.100006 318.900024 C 515.900024 320.700012 523.400024 323.400024 531 317.799988 C 532.700012 316.599976 536.200012 317.799988 538.900024 317.900024 C 538.200012 320.400024 537.599976 322.900024 536.799988 325.400024 C 536.5 326.299988 535.799988 327 534.599976 328.900024 C 544.799988 330.400024 552.599976 338 563.200012 335.900024 C 564.200012 335.700012 566.299988 336.599976 566.299988 337.200012 C 567.299988 343.400024 573.099976 343.700012 576.900024 346.400024 C 591.400024 356.799988 606 367.099976 620.400024 377.599976 C 626 381.700012 631.5 386.099976 636.799988 390.5 C 639.5 392.700012 642.400024 395 644.200012 397.900024 C 656.400024 418.099976 669.599976 437.900024 675.599976 461.099976 C 678.299988 471.5 680.700012 482 678.299988 493.299988 C 675.900024 487.599976 673.5 481.900024 671.099976 476.200012 C 670.900024 476.299988 670.700012 476.400024 670.5 476.400024 C 671.900024 486.5 673.799988 496.599976 674.799988 506.700012 C 679.200012 555.200012 672.200012 602.200012 656.400024 648.099976 C 653.900024 655.5 651.299988 662.900024 648.900024 670.299988 C 647.799988 673.700012 644.599976 677 648.799988 680.799988 C 649.400024 681.299988 647.400024 685.099976 646.299988 687.099976 C 643.200012 692.599976 639.099976 697.599976 637 703.400024 C 620 749 602.799988 794.599976 586.900024 840.599976 C 575.799988 872.599976 566.599976 905.299988 556.700012 937.700012 C 552 952.900024 545.200012 967.099976 536.299988 980.200012 C 535.200012 981.799988 532.099976 983.099976 530.200012 982.799988 C 528.599976 982.599976 526.5 980 526.200012 978.200012 C 525.599976 975.5 526.099976 972.5 526.599976 969.700012 C 532.400024 935.900024 544.099976 903.799988 555.5 871.700012 C 570.099976 830.400024 585.200012 789.400024 600.200012 748.200012 C 600.900024 746.099976 601.700012 744.099976 602.400024 742 C 601.900024 741.700012 601.400024 741.5 600.900024 741.200012 C 599.099976 744.200012 597 747 595.700012 750.099976 C 582.200012 782.700012 564.599976 813.099976 545.400024 842.599976 C 542.400024 847.200012 539.099976 851.700012 532.5 852 C 530.900024 852.099976 529.200012 854.700012 528.099976 856.5 C 518.5 871.799988 509.200012 887.299988 499.600006 902.599976 C 494.200012 911.200012 489 913.599976 483.299988 910.5 C 477.600006 907.400024 476.600006 900.700012 480.899994 891.900024 C 483.700012 886.200012 486.600006 880.599976 490 873.799988 C 480.5 878.299988 471.899994 889 462.899994 876 C 460.299988 872.299988 458.299988 867.200012 458.399994 862.799988 C 458.5 858.799988 461.600006 854.700012 463.600006 850.200012 C 466.399994 852.5 468.299988 854.099976 470.200012 855.599976 C 479.5 862.799988 487 859.900024 487.899994 848.099976 C 488.399994 842.099976 487 835.900024 486.200012 829.900024 C 485.799988 827.099976 484.399994 824.400024 484.100006 821.599976 C 483.899994 819.900024 485.100006 818.099976 485.899994 815.400024 C 496.5 828.700012 502.200012 829.400024 510.899994 819.5 C 512.099976 820.099976 513.299988 821.400024 514.5 821.400024 C 518.599976 821.200012 523.700012 821.799988 526.299988 819.599976 C 528.700012 817.700012 529.599976 812.200012 529 808.700012 C 527.799988 801.299988 523.299988 796 514.799988 788.900024 C 520.400024 782.200012 526 775.5 531.599976 768.799988 C 531.200012 768.5 530.900024 768.099976 530.5 767.799988 C 527.099976 771.599976 523.700012 775.400024 520.200012 779.099976 C 514.799988 784.700012 509.299988 790.299988 503.5 796.099976 C 500.299988 795.299988 496.200012 794.299988 491.600006 793.200012 C 491.600006 791.099976 492.399994 788.200012 491.399994 785.900024 C 490.100006 783 487.799988 778.700012 485.5 778.400024 C 480.299988 777.700012 476.700012 775 472.5 772.700012 C 467.399994 769.799988 461.200012 771.5 456.899994 776.200012 C 455.600006 777.700012 454.399994 779.299988 452.600006 781.400024 C 448.399994 772.299988 449.600006 760.400024 436.899994 756 C 436.5 764.099976 435.200012 771.700012 436.200012 778.900024 C 437.299988 787.5 438.100006 795.599976 433.600006 803.599976 C 421.600006 796.200012 419 783.099976 413.399994 771.200012 C 413.100006 774.900024 412.899994 778.700012 412.600006 782.200012 C 408.5 783.299988 404.799988 784.299988 400.299988 785.5 C 400.5 782.299988 401.299988 778.799988 400.799988 775.5 C 400.200012 771.5 398.200012 767.700012 397.299988 763.700012 C 396.600006 760.5 395.899994 757 396.5 753.900024 C 397.700012 747.900024 395.899994 745.599976 390 746.700012 C 384.700012 747.700012 381 750.599976 378.799988 755.5 C 378 757.299988 377.200012 759.200012 376.799988 760.200012 C 373.799988 758 370.899994 754.200012 368.200012 754.400024 C 365.5 754.5 362.5 758.200012 360.399994 760.900024 C 355.299988 767.200012 352.299988 774.400024 355.600006 782.599976 C 356.399994 784.599976 357.799988 787.799988 359.200012 788 C 366.700012 789 373.399994 797.099976 382.299988 789.900024 C 381.5 795.5 380.100006 800.700012 387.299988 802 C 387.899994 802.099976 388 805 388.5 806.5 C 391 813.200012 393.5 819.900024 396.100006 826.700012 C 396.700012 826.599976 397.200012 826.5 397.799988 826.400024 C 398.200012 824.599976 398.600006 822.700012 399.399994 819 C 400.600006 824.900024 401.5 829.099976 402.299988 833.400024 C 404.299988 844 409.5 852 419.899994 856 C 421.200012 856.5 422.399994 857.900024 423.200012 859.200012 C 427.200012 865.400024 431.100006 871.700012 435.100006 877.900024 C 439.200012 884.200012 443.899994 889.400024 454.399994 886.799988 C 452.5 890.400024 451.700012 893.799988 450.299988 894.099976 C 442.5 895.700012 437.899994 906 427.200012 900.5 C 428.899994 907.799988 430.399994 913.5 431.399994 919.299988 C 434.100006 934.5 436.700012 949.599976 439.299988 964.799988 C 439.600006 966.599976 440 968.799988 439.299988 970.299988 C 438 973 436.200012 977 434 977.400024 C 431.399994 977.900024 426.799988 975.900024 425.5 973.700012 C 422.200012 967.700012 420.200012 960.900024 417.899994 955.099976 C 415.100006 956.299988 411.5 959.299988 409.100006 958.5 C 405.899994 957.5 402.200012 954.099976 401.100006 950.900024 C 395.700012 935.400024 390.899994 919.700012 386.200012 904 C 383.5 895.200012 381.299988 886.200012 377.600006 877.599976 C 377.799988 879.599976 377.899994 881.599976 378.299988 883.5 C 381 895.700012 383.700012 908 386.5 920.200012 C 387.600006 924.900024 388 929.5 382.700012 931.799988 C 377.200012 934.200012 374.299988 930.299988 371.799988 926.400024 C 370.399994 924.400024 369.100006 922.200012 368.299988 919.900024 C 366.5 914.5 363.700012 910.799988 358.200012 907.900024 C 353.899994 905.599976 350.799988 900.299988 348.5 895.599976 C 338.600006 875.799988 329.100006 855.700012 319.5 835.700012 C 318.700012 834.099976 317.799988 832.5 316.5 831 C 322.5 851.299988 330.899994 871 332.399994 892.400024 C 331.399994 893.099976 330.399994 893.599976 329.399994 894 Z M 551.099976 716.5 C 560.5 713 570 709.799988 579.200012 706 C 583.900024 704.099976 588.700012 701.799988 592.400024 698.5 C 605 687.400024 617.200012 675.700012 629.5 664.200012 C 632.799988 661.099976 636.700012 658.599976 639.700012 655.299988 C 642.5 652.299988 645.700012 648.799988 646.700012 645 C 653.200012 619.099976 655.200012 592.700012 654.099976 566.099976 C 654.099976 565.599976 653.700012 565 653.400024 564.299988 C 652.400024 565.5 651.599976 566.5 649.599976 569 C 649.599976 563.700012 648.200012 559.099976 649.900024 556.700012 C 653.799988 551.200012 654.700012 546.099976 652 540 C 649.5 534.299988 644.400024 529.200012 647.700012 522 C 648.099976 521.200012 647.299988 519.5 646.700012 518.5 C 640.799988 509.099976 634.900024 499.799988 628.900024 490.5 C 628.799988 490.400024 628.200012 490.599976 627.400024 490.700012 C 627.400024 491.599976 627.700012 492.700012 627.400024 493.5 C 625.200012 499 623.299988 504.700012 620.200012 509.700012 C 619.299988 511.200012 614.400024 511.799988 612.599976 510.700012 C 610.5 509.400024 608.900024 505.900024 608.700012 503.299988 C 608.5 500.200012 609.900024 496.900024 611 493.799988 C 613 488.099976 615.299988 482.400024 617.5 476.700012 C 610.599976 483.599976 604.400024 490.700012 598.400024 498 C 597.5 499.099976 597 501.099976 597.299988 502.299988 C 599.099976 507.799988 597 512.200012 593.599976 515.900024 C 586.299988 523.900024 578.5 531.5 571 539.400024 C 568.400024 542.200012 565.900024 545.200012 564.200012 548.5 C 561.299988 554.400024 558.200012 560.099976 551.200012 561.299988 C 528.799988 565.099976 506.299988 568.700012 483.200012 572.400024 C 482.600006 575.700012 478.399994 575.700012 474.700012 576.400024 C 463.200012 578.599976 451.799988 575.400024 440.299988 575.700012 C 428.399994 576 416.100006 570.299988 404.299988 566.299988 C 392.5 562.200012 381.200012 556.5 369.5 552.200012 C 362 549.5 359.799988 547.099976 363.200012 539.900024 C 366.399994 533.200012 370.700012 527 375 519.900024 C 373.299988 518.299988 370.899994 514.5 367.899994 513.799988 C 358.700012 511.700012 353.799988 506.900024 354.200012 497.299988 C 354.399994 493.799988 352.600006 492.400024 349.399994 492.5 C 347.600006 492.599976 345.399994 493.5 343.899994 492.799988 C 340.200012 491.099976 336.299988 489.299988 333.5 486.5 C 330.899994 483.900024 330.200012 480.099976 333 476.400024 C 337.899994 469.900024 342.700012 463.200012 347.299988 456.5 C 348.299988 455 349.600006 452.599976 349.100006 451.200012 C 347 445.599976 349.899994 443.700012 354.399994 442.299988 C 355.899994 441.900024 357.299988 441.200012 359.299988 440.400024 C 354.700012 436.5 351.700012 436.400024 348 440.799988 C 340.899994 449.299988 333.5 457.599976 325.799988 465.5 C 322.899994 468.400024 318.899994 470.200012 314.5 473.099976 C 317 488.200012 319.299988 504.700012 322.600006 521 C 324.299988 529.5 326.700012 538.200012 330.700012 545.799988 C 336.799988 557.099976 336.299988 570.799988 344.700012 581.299988 C 348 585.299988 347.899994 591.900024 350.299988 596.799988 C 352.100006 600.599976 354.5 605.400024 357.899994 606.799988 C 363.899994 609.200012 367.399994 613 369.399994 618.700012 C 369.5 618.900024 370.100006 618.900024 371.299988 619.200012 C 371.899994 616.099976 372.399994 613.099976 373.100006 608.900024 C 374.600006 613 376 616.099976 376.799988 619.400024 C 378 624.5 379.600006 628.400024 385.700012 626.200012 C 386.600006 628.799988 387.399994 631 388.100006 633.099976 C 388.5 633 388.899994 632.900024 389.299988 632.799988 C 390.100006 626 391 619.299988 391.799988 612.5 C 392.299988 612.400024 392.799988 612.200012 393.399994 612.099976 C 394.5 613.900024 395.799988 615.599976 396.5 617.5 C 400.5 627.700012 404.299988 637.900024 408.399994 648.099976 C 409 649.599976 410.799988 651.299988 412.299988 651.599976 C 417.799988 652.799988 423.399994 653.5 430 654.5 C 430.200012 657.099976 430.600006 661 430.899994 665 C 431.5 665.099976 432 665.099976 432.600006 665.200012 C 433.799988 662.5 434.899994 659.700012 436.399994 657.099976 C 437.100006 655.900024 438.700012 655.200012 439.799988 654.299988 C 440.399994 655.700012 441.299988 657.099976 441.399994 658.5 C 441.700012 661.200012 441.5 663.900024 441.5 667.400024 C 448.100006 663.400024 453.799988 659.900024 460.899994 655.5 C 459.700012 660.099976 458.899994 663.200012 458.5 664.900024 C 461.200012 666 463.5 666.299988 465 667.599976 C 467.899994 670 470.100006 670.200012 472.899994 667.299988 C 477 663 481.399994 659 486 655.099976 C 488 653.400024 490.600006 652.400024 493 651.200012 C 493.600006 651.700012 494.200012 652.099976 494.799988 652.599976 C 493.299988 658.700012 491.700012 664.700012 490.200012 670.799988 C 490.5 671.200012 490.899994 671.700012 491.200012 672.099976 C 493.799988 670.599976 496.399994 669.099976 498.899994 667.400024 C 503.899994 663.900024 508.700012 660.099976 513.900024 656.900024 C 517 655 520.599976 654.200012 520.700012 658.400024 C 524.799988 659.299988 528.200012 660.099976 533 661.099976 C 539.599976 656.299988 547.599976 650 558.400024 648.799988 C 554.5 653.799988 550.599976 658.900024 546.700012 663.900024 C 547.099976 664.5 547.5 665 547.900024 665.599976 C 551.299988 663.700012 554.900024 662.099976 558.099976 659.799988 C 568.799988 652.200012 579.400024 644.400024 590.099976 636.900024 C 592.299988 635.400024 595.099976 634.700012 597.799988 633.5 C 598.299988 635.599976 598.5 636.900024 598.799988 638.200012 C 599.299988 638.400024 599.799988 638.700012 600.299988 638.900024 C 607.599976 627.799988 614.799988 616.700012 622.799988 604.5 C 624 607.400024 624.400024 609.099976 625.400024 610.5 C 626.599976 612.299988 628.200012 613.900024 629.599976 615.599976 C 630.900024 613.900024 632.299988 612.400024 633.299988 610.599976 C 634.799988 607.799988 636 604.900024 637.700012 601.200012 C 641.200012 606 644.700012 609.400024 646.400024 613.599976 C 647.400024 616.099976 646.799988 621.099976 645 622.599976 C 643.099976 624.099976 638.700012 623.299988 635.799988 622.299988 C 633.599976 621.5 632.200012 618.700012 629.900024 616.200012 C 627.299988 620.599976 625.099976 624.400024 622.799988 628.299988 C 624.700012 630 626.5 631 627.400024 632.5 C 629 635.099976 630.099976 638 631.400024 640.700012 C 628.599976 641.799988 625.799988 642.900024 623 644.200012 C 621.400024 645 619 645.700012 618.5 647 C 616.400024 652.200012 614.900024 657.700012 613 663.599976 C 609.799988 665 605.900024 667.400024 601.599976 668.299988 C 596.299988 669.400024 593.799988 671.099976 596 677 C 597.799988 681.799988 596.400024 686.700012 591.799988 688.599976 C 588.5 690 584.099976 689 580.299988 688.400024 C 578.799988 688.200012 577.599976 686.099976 576.5 685.200012 C 569.900024 686.5 570.799988 690.799988 571.400024 695.299988 C 572 699.700012 571.900024 704.700012 567.099976 706.400024 C 564.099976 707.5 559.599976 707.099976 556.900024 705.599976 C 554.299988 704.099976 552.599976 700.400024 551.299988 697.400024 C 550.099976 694.5 550 691.200012 549.400024 687.799988 C 544.700012 690.599976 545.299988 697.799988 551.099976 716.5 Z M 546.599976 504.200012 C 545.799988 501.599976 544.299988 499.400024 544.599976 497.5 C 545.299988 492.700012 542.700012 492.299988 539 491.599976 C 532.400024 490.299988 525.700012 489.099976 519.599976 486.5 C 498.100006 477.299988 477.299988 466.299988 453.899994 462.200012 C 440.799988 459.900024 427.5 457.599976 414.700012 454.200012 C 402.600006 451 390.799988 450.599976 378.799988 453.400024 C 371.600006 455 364.100006 455 359.700012 463.5 C 356.700012 469.200012 350.700012 473.400024 345.5 478.900024 C 347.700012 479.900024 350 480.900024 352.299988 481.900024 C 353.100006 480 353.600006 477.900024 354.899994 476.299988 C 356.700012 474 358.600006 471.5 361.100006 470.099976 C 363.700012 468.599976 366.799988 467.599976 369.799988 467.299988 C 377 466.599976 384.299988 465.599976 391.399994 466.200012 C 398.700012 466.799988 405.899994 467.5 408.299988 477.700012 C 409.899994 484.700012 411 487.299988 404.100006 490.400024 C 399.700012 492.299988 394.899994 493.200012 389.299988 494.799988 C 392 495.5 393.700012 496.099976 395.399994 496.299988 C 428.700012 499.5 462 502.700012 495.299988 505.900024 C 497.899994 506.200012 500.600006 506.400024 503.200012 506.700012 C 507.799988 507.099976 512.5 508 517.099976 507.700012 C 524.599976 507.200012 532 505.900024 539.400024 505 C 541.700012 504.5 544.099976 504.400024 546.599976 504.200012 Z M 464.100006 418.099976 C 470.700012 418.099976 477.5 417.599976 484.200012 418.299988 C 488.200012 418.700012 490.600006 418.099976 493 414.900024 C 506.799988 396.5 520.799988 378.200012 534.700012 359.900024 C 537 356.900024 539.400024 354 542.200012 350.400024 C 535.5 348.400024 529.799988 346.900024 524.200012 344.900024 C 520.5 343.599976 518.099976 344.599976 515.700012 347.599976 C 497.299988 370.700012 476.899994 392.299988 464.100006 418.099976 Z M 585.299988 489.799988 C 603 474.099976 612.599976 452.5 632.599976 439 C 625 426.299988 617.400024 413.599976 609.299988 400.099976 C 606 403.900024 603.5 406.700012 601.099976 409.400024 C 600.799988 409.200012 600.599976 409 600.299988 408.799988 C 600.799988 407.200012 601.200012 405.599976 601.700012 404 C 601.299988 403.799988 601 403.700012 600.599976 403.5 C 595.099976 411.799988 589.599976 420.099976 584.400024 428.099976 C 588.400024 432.299988 591.900024 436 595.799988 440.099976 C 598.900024 436.700012 601.599976 433.400024 604.599976 430.299988 C 607.400024 427.400024 610.400024 424.700012 613.799988 421.5 C 606.400024 445.5 589.200012 464.099976 585.299988 489.799988 Z M 320 433 C 337.700012 409 353.899994 384.099976 375.100006 363.200012 C 375.799988 363.700012 376.600006 364.099976 377.299988 364.599976 C 369.299988 378.200012 361.299988 391.700012 352.399994 406.700012 C 360.600006 403.5 366.600006 401.299988 371.399994 394.900024 C 382.200012 380.200012 394.299988 366.400024 405.799988 352.200012 C 406.899994 350.900024 407.899994 349.5 408.899994 348.099976 C 401.5 349.599976 394.700012 351.700012 388.299988 354.799988 C 375.399994 361 362.700012 367.799988 349.899994 374.299988 C 346.899994 375.799988 342.600006 376.5 341 378.900024 C 329.899994 395.099976 324.299988 413.799988 320 433 Z M 578.200012 367.599976 C 571.799988 364.200012 566.5 361.799988 561.599976 358.599976 C 556.599976 355.299988 554 356.900024 550.799988 361.400024 C 536.599976 381.200012 522 400.799988 507.600006 420.5 C 507.100006 421.200012 506.799988 422.200012 506.100006 423.799988 C 511.200012 422.900024 515.599976 421.700012 520 421.400024 C 526.299988 421 530.599976 418.099976 534.299988 413.200012 C 540.400024 405 546.799988 397 553.5 389.200012 C 560.400024 381 565.799988 371.400024 578.200012 367.599976 Z M 582.200012 368.599976 C 570 386.599976 559 402.900024 547.5 419.700012 C 555 420.900024 561.400024 422.099976 567.900024 422.900024 C 569.200012 423.099976 571.099976 422.099976 571.900024 421 C 580.400024 409.200012 588.599976 397.400024 597.900024 384.200012 C 593.299988 379.599976 588.299988 374.700012 582.200012 368.599976 Z M 502.5 339.900024 C 497.700012 338.700012 493.299988 335.5 489.299988 340.5 C 472.299988 361.599976 455.299988 382.599976 438.5 403.799988 C 435.200012 408 436.200012 414.400024 440.5 418.700012 C 461 392.599976 481.5 366.599976 502.5 339.900024 Z M 387.799988 404.799988 C 407.299988 382.299988 426.700012 359.900024 446.5 337.099976 C 434.100006 339.099976 422.399994 340.200012 414.700012 352 C 404.399994 367.599976 392.899994 382.299988 381.899994 397.400024 C 381.399994 398.099976 381.200012 399.200012 380.899994 400 C 383.399994 401.900024 385.799988 403.5 387.799988 404.799988 Z M 399.100006 415.099976 C 406.399994 421.200012 406.700012 421.400024 411.200012 414.900024 C 415.700012 408.400024 419.399994 401.400024 423.600006 394.700012 C 424.200012 393.700012 425.299988 393 426 392.099976 C 428.799988 388.700012 431.600006 385.299988 434.299988 381.799988 C 435.100006 380.700012 435.399994 379 436.299988 378.099976 C 440.600006 373.700012 445.299988 369.700012 449.5 365.200012 C 458.299988 355.5 466.700012 345.599976 475.399994 335.799988 C 466.799988 334.5 460.5 337 455.100006 344.5 C 446.5 356.5 436.799988 367.700012 427.600006 379.299988 C 418 391.099976 408.700012 403 399.100006 415.099976 Z M 408.600006 110 C 406.799988 112.299988 405.200012 113.900024 404.100006 115.799988 C 395.5 129.099976 386.899994 142.299988 378.5 155.700012 C 371.600006 166.799988 365.700012 178.700012 358 189.299988 C 353.200012 195.900024 354.799988 201.799988 355.5 208.400024 C 358.299988 204.200012 360.200012 199.700012 362.399994 195.400024 C 375.600006 169.400024 393.100006 146.400024 411.899994 124.299988 C 415.100006 120.5 415.399994 117.799988 412 114.400024 C 410.899994 113.299988 410.200012 112 408.600006 110 Z M 471.100006 508.5 C 463.600006 509.900024 458.799988 514.099976 457.5 520.799988 C 457.200012 522.700012 455.799988 524.400024 455.700012 526.200012 C 455.600006 529.900024 454.799988 534.5 456.600006 537 C 457.799988 538.700012 463.100006 537.900024 466.5 537.700012 C 469.5 537.5 472.5 536.799988 475.5 536.099976 C 479.200012 535.200012 483.200012 534.700012 486.5 532.900024 C 492.899994 529.400024 494.200012 522.200012 488.5 517.599976 C 483.5 513.599976 476.899994 511.5 471.100006 508.5 Z M 375.399994 206.900024 C 375.799988 207.400024 376.200012 207.799988 376.600006 208.299988 C 382.100006 204.200012 388.299988 200.700012 393.100006 195.900024 C 406.600006 182.200012 419.600006 168 432.799988 153.900024 C 433.700012 152.900024 434.799988 150.700012 434.299988 149.900024 C 430.100006 142.900024 425.600006 136.200012 420.600006 128.5 C 413.399994 137.200012 406.700012 145.099976 400.100006 153 C 402.299988 152.700012 403.299988 151.400024 404.399994 150.299988 C 408.5 146.299988 412.299988 142 416.799988 138.599976 C 420 136.200012 423.700012 137.299988 425.799988 140.900024 C 427.899994 144.5 426.100006 147.099976 423.100006 149.200012 C 421.299988 150.5 419.299988 151.799988 417.899994 153.5 C 403.600006 171.200012 389.5 189.099976 375.399994 206.900024 Z M 372.299988 500.5 C 376.600006 506.5 375.5 514.900024 384.799988 515.799988 C 386.200012 515.900024 387.299988 517.700012 388.700012 518.700012 C 394.899994 523 401.100006 528.400024 409.299988 525.799988 C 414.100006 524.200012 418.299988 520.599976 422.299988 518.200012 C 420.399994 515.599976 419.399994 513.900024 418.100006 512.5 C 416.600006 510.900024 414.299988 507.900024 413.399994 508.299988 C 403.799988 512 396.899994 506 389.299988 502.200012 C 388.799988 501.900024 388.100006 501.900024 387.5 501.900024 C 383 501.400024 378.5 501 372.299988 500.5 Z M 385.5 88 C 381.299988 88.599976 379.5 89.099976 377.700012 89 C 371.100006 88.599976 365.299988 90.400024 361 95.299988 C 352.799988 104.799988 346.600006 121.400024 348.700012 135.299988 C 349.899994 131.400024 351 127.599976 352.100006 123.799988 C 352.799988 123.900024 353.5 124 354.100006 124.099976 C 354.399994 126 354.700012 127.900024 355.200012 130.5 C 365.5 116.099976 375.200012 102.400024 385.5 88 Z M 545.200012 451.799988 C 542.400024 446.599976 539.5 441.299988 535.900024 434.700012 C 522.799988 436.5 507.5 436.400024 495.100006 446.5 C 511.100006 448.799988 527 450.400024 542.799988 451.900024 C 544 452 545.099976 451.799988 545.200012 451.799988 Z M 355.600006 172.900024 C 360.5 162.799988 364.5 154.099976 369 145.700012 C 373.600006 137 378.399994 128.400024 383.600006 120.099976 C 388.5 112.299988 394 104.900024 399.299988 97.299988 C 398.600006 96.799988 397.899994 96.299988 397.200012 95.700012 C 395.5 97.5 393.5 99.099976 392.100006 101.099976 C 381.5 115.900024 371.299988 131.099976 360.299988 145.700012 C 354.100006 153.799988 355.100006 162.299988 355.600006 172.900024 Z M 429.700012 555.099976 C 430.799988 550.299988 433.200012 546.200012 432.200012 543.200012 C 430.799988 538.799988 427.799988 533.799988 424 531.700012 C 422.100006 530.599976 416.899994 535.200012 413.399994 537.5 C 411.899994 538.5 410.899994 540.200012 409.799988 541.700012 C 407.600006 544.799988 407.899994 547.599976 411.700012 549.099976 C 417.600006 551.200012 423.600006 553.099976 429.700012 555.099976 Z M 565.799988 450.400024 C 568.799988 452.900024 573.799988 455 574.400024 458 C 574.900024 461 571 464.700012 568.299988 469.5 C 571 468.5 573.900024 468.400024 575.200012 467 C 579.5 462.099976 583.400024 456.799988 587.200012 451.5 C 587.900024 450.5 588 448.099976 587.299988 447.400024 C 582.599976 442.299988 576.700012 439.700012 570.700012 438.900024 C 568.700012 443.599976 567.099976 447.400024 565.799988 450.400024 Z M 440.600006 533.200012 C 446 533.400024 450.799988 528.799988 451 523.299988 C 451.200012 518 446.600006 512.900024 441.200012 512.599976 C 436 512.200012 431.100006 516.900024 430.899994 522.599976 C 430.700012 528.200012 435.100006 533 440.600006 533.200012 Z M 453.299988 174 C 450 169.900024 447.200012 166.5 443.899994 162.299988 C 436.5 169.200012 429.5 175.700012 422.5 182.200012 C 422.799988 182.5 423 182.799988 423.299988 183 C 425.100006 182.599976 427 182.299988 429.100006 181.799988 C 428.799988 183.400024 428.600006 184.5 428.100006 187.5 C 437.200012 182.599976 444.799988 178.599976 453.299988 174 Z M 507.299988 528.700012 C 504.600006 531.200012 501 534.599976 496.399994 538.900024 C 508.600006 539.900024 506 549.599976 509.299988 555.400024 C 511.399994 555 513.599976 554.700012 515.700012 554.099976 C 521 552.400024 522.400024 546.299988 518.700012 542.299988 C 515.099976 538.5 512 534.400024 507.299988 528.700012 Z M 389.100006 168.299988 C 379.5 181 368.600006 195.599976 357.5 210 C 353.799988 214.799988 355.100006 219.200012 357.700012 225.900024 C 369.100006 205.099976 379.600006 185.799988 389.100006 168.299988 Z M 534.400024 529.5 C 534.799988 525.900024 540.5 520.599976 533.200012 516.799988 C 530.799988 515.5 527 516.299988 524 517 C 521.5 517.599976 517.599976 519.099976 517.400024 520.700012 C 517 523.5 518.099976 527.299988 520 529.400024 C 521.400024 530.900024 525 530.599976 527.700012 530.700012 C 529.400024 530.700012 531.200012 530.099976 534.400024 529.5 Z M 335.100006 430 C 328.600006 442.900024 314.799988 450.5 314.799988 466.5 C 323.5 455.900024 332.200012 445.200012 341.200012 434.299988 C 339.100006 432.799988 337.600006 431.799988 335.100006 430 Z M 476.399994 552.700012 C 475.899994 548.200012 473.600006 545.299988 468.899994 545.400024 C 464.200012 545.400024 461.799988 548.400024 461.700012 552.900024 C 461.600006 557.400024 464.600006 559.599976 468.700012 559.799988 C 473.399994 560 475.899994 557.200012 476.399994 552.700012 Z M 352.399994 422.200012 C 352.600006 422.799988 352.700012 423.299988 352.899994 423.900024 C 358.799988 425.900024 364.600006 427.799988 371.299988 430.099976 C 370.399994 424.5 369.600006 419.900024 368.700012 414.099976 C 362.700012 417 357.600006 419.599976 352.399994 422.200012 Z M 557 502.799988 C 557.099976 503.400024 557.200012 504.099976 557.299988 504.700012 C 561.5 503.5 566.900024 503.5 569.5 500.799988 C 572.700012 497.400024 573.700012 491.799988 576 486.200012 C 569.099976 492.099976 563.099976 497.5 557 502.799988 Z M 458 444.599976 C 464 448.099976 477.100006 437.900024 478.799988 427.799988 C 471.899994 433.299988 465.100006 438.900024 458 444.599976 Z M 370.700012 669.099976 C 372.799988 681.099976 374.600006 691.299988 376.700012 702.900024 C 380.399994 696.099976 376.799988 673.700012 370.700012 669.099976 Z M 648.099976 485.200012 C 646.099976 476.700012 644 468.299988 641.700012 458.700012 C 636.099976 467.400024 637.900024 475.099976 648.099976 485.200012 Z M 449.899994 560.099976 C 454.5 562.5 458.399994 562.799988 460.5 556.5 C 457.899994 554.599976 455.299988 552.700012 452.700012 550.799988 C 451.600006 554.099976 450.799988 556.900024 449.899994 560.099976 Z M 525.900024 729.400024 C 530.5 726.400024 529.099976 714.099976 524 708 C 524.599976 714.799988 525.200012 721.5 525.900024 729.400024 Z M 595.799988 640.900024 C 592.5 644.5 589.599976 647.599976 586.700012 650.799988 C 586.400024 651.099976 586.099976 651.400024 585.900024 651.700012 C 585.599976 652.599976 585.200012 653.599976 585.400024 654.400024 C 585.5 654.799988 586.700012 655.400024 587.299988 655.400024 C 590.700012 655.200012 596.900024 645.099976 595.799988 640.900024 Z M 390 540.700012 C 390.5 540.200012 391 539.700012 391.5 539.200012 C 389.799988 536.900024 388.299988 534.200012 386.200012 532.5 C 385.600006 532 382.799988 534.299988 379.600006 536.099976 C 384 538 387 539.400024 390 540.700012 Z"/>
        <path id="path2" fill="#ff9400" stroke="none" d="M 935.099976 857.5 C 925.599976 864.900024 915.599976 871.700012 906.700012 879.700012 C 873.299988 909.900024 840.200012 940.400024 807.099976 970.799988 C 804.599976 973.099976 802.099976 975.900024 798.700012 972.799988 C 795.400024 969.799988 797.5 966.599976 799.799988 964.200012 C 812.099976 951.5 824 938.5 836.900024 926.400024 C 860.700012 904 884.400024 881.5 909.299988 860.400024 C 921.099976 850.400024 935.5 843.599976 948.700012 835.400024 C 950.099976 834.599976 951.700012 834.099976 953.299988 833.599976 C 958.099976 832.200012 963.299988 830.299988 966.799988 835.5 C 970.200012 840.599976 965.799988 844.299988 963.099976 848 C 953.400024 861 943.700012 874 934.099976 887 C 933.400024 887.900024 933 889.099976 932.799988 889.5 C 938.700012 888.299988 944.900024 885.5 950.599976 886.299988 C 958.799988 887.5 956.599976 895.599976 957.299988 901.5 C 957.599976 901.700012 957.900024 902.200012 958.200012 902.200012 C 969.700012 902.200012 975.299988 910.400024 969.099976 920.400024 C 963 930.200012 955.5 939.599976 946.799988 947.200012 C 934.700012 957.900024 920.900024 966.700012 907.900024 976.200012 C 907.099976 976.799988 906.099976 977.5 905.200012 977.599976 C 894.700012 978.900024 891.799988 986.700012 889.799988 995.400024 C 888.799988 999.700012 887.299988 1003.900024 886.5 1008.5 C 905.900024 989.200012 926.400024 971.5 950.200012 958.200012 C 973.900024 945.099976 997.900024 932.299988 1026.300049 935.200012 C 1026.5 934.200012 1026.800049 933.700012 1026.699951 933.400024 C 1011.900024 896 996.900024 858.599976 982.400024 821.099976 C 965.599976 777.700012 946.900024 735.299988 925.400024 694.099976 C 920.5 684.700012 913.599976 676.400024 907 668 C 901.200012 660.700012 900.299988 656.099976 905.299988 652.099976 C 913.400024 645.700012 919.400024 646.299988 924.799988 654.799988 C 939.900024 678.299988 954.400024 702.200012 964.799988 728.299988 C 981.400024 769.700012 998.599976 810.799988 1014.900024 852.299988 C 1025.5 879 1035.199951 906.099976 1045.099976 933.200012 C 1046.300049 936.599976 1046.900024 940.400024 1046.800049 944 C 1046.699951 946.099976 1045.199951 949.200012 1043.5 949.900024 C 1041.800049 950.599976 1038.599976 949.400024 1037 948 C 1034.400024 945.799988 1032.900024 942.400024 1030.400024 940 C 1029.199951 938.900024 1025.900024 938 1025.199951 938.599976 C 1013.5 950.400024 997.799988 955 983.599976 962.099976 C 942 982.799988 907.400024 1011.900024 879.099976 1048.599976 C 878.299988 1049.599976 877.5 1050.5 876.799988 1051.5 C 873.400024 1055.900024 869.200012 1058.099976 863.900024 1055.400024 C 858.599976 1052.699951 857.599976 1048 859.200012 1042.800049 C 867.200012 1015.799988 874.400024 988.599976 883.5 962 C 893.599976 932.900024 905.099976 904.200012 922.5 878.400024 C 927 871.799988 931.599976 865.299988 936.200012 858.700012 C 936 858.400024 935.599976 857.900024 935.099976 857.5 Z M 960.799988 913 C 960.400024 912.299988 960 911.700012 959.599976 911 C 953.599976 914.599976 947.299988 917.799988 941.799988 921.900024 C 935.599976 926.599976 930.099976 932.200012 924.099976 937.200012 C 919.700012 940.900024 915.099976 944.299988 908.5 941.900024 C 906.200012 948.200012 904.099976 954.099976 901.799988 960.5 C 917.200012 956 957.299988 923.400024 960.799988 913 Z M 946.799988 897.200012 C 934.200012 902.099976 927.099976 912.900024 919.200012 922.799988 C 928.799988 914.700012 943.200012 912 946.799988 897.200012 Z"/>
        <path id="path3" fill="#ff9400" stroke="none" d="M 206.899994 208.799988 C 187.5 211.5 177.800003 197.599976 181.100006 174.400024 C 170.600006 182.599976 162 191.400024 155.899994 202.5 C 154.899994 204.299988 154.100006 206.200012 153 207.900024 C 150.300003 211.900024 146.399994 213.599976 141.800003 212 C 137.199997 210.400024 134.699997 206.799988 135.199997 202 C 135.699997 197.599976 136.800003 193.099976 138.399994 188.900024 C 145.300003 170 152.399994 151.099976 159.600006 132.299988 C 161.199997 128.200012 160.699997 126.299988 156.600006 124.200012 C 145.800003 118.799988 135.199997 112.799988 124.599998 106.900024 C 118 103.200012 116 99.099976 118.199997 94.799988 C 120.400002 90.5 127.300003 88.400024 133 91 C 142.699997 95.400024 152.199997 100.299988 161.800003 105 C 164 106.099976 166.199997 107 169.100006 108.200012 C 171 103.599976 172.800003 99.5 174.5 95.299988 C 182 76.400024 189.300003 57.400024 196.899994 38.5 C 198.5 34.5 200.300003 30.300049 203.100006 27.300049 C 205.100006 25.199951 209.5 23.5 212.100006 24.099976 C 214.199997 24.599976 216.199997 29.099976 216.399994 31.900024 C 216.699997 36.099976 216 40.599976 214.600006 44.599976 C 207.5 66.099976 200.100006 87.400024 192.800003 108.799988 C 192 111.099976 191.100006 113.400024 190 116.200012 C 192.800003 117.299988 195.100006 118.599976 197.600006 119.200012 C 213.800003 123 230 126.700012 246.199997 130.200012 C 251.300003 131.299988 254.5 133.799988 254.899994 139 C 255.300003 143.799988 251.600006 147.900024 246.199997 148.400024 C 241.699997 148.799988 237.199997 148.599976 232.699997 148.400024 C 225 148 218.399994 150.799988 212.5 154.599976 C 220 157.099976 228 158.599976 234.800003 162.200012 C 252.600006 171.799988 261 202.400024 251.5 220.299988 C 246.899994 229 233.300003 232.700012 222.5 228.099976 C 214.199997 224.599976 208 219 206.899994 208.799988 Z M 206.100006 200.900024 C 211.699997 198.799988 215.600006 196.200012 219.800003 195.900024 C 226.600006 195.299988 225.5 200.799988 226.100006 205.299988 C 226.300003 206.799988 229.699997 208.299988 231.800003 208.799988 C 232.699997 209 234.899994 207.099976 235.300003 205.799988 C 240.199997 187.900024 226.399994 173.599976 208.399994 177.900024 C 204.300003 178.900024 202 181.400024 202.600006 185.299988 C 203.399994 190.700012 205 196.200012 206.100006 200.900024 Z M 206.600006 143.099976 C 202.800003 141.900024 200 140.900024 197.100006 140 C 182.100006 135.099976 182.100006 135.099976 176.399994 150.200012 C 174.5 155.200012 172.800003 160.200012 170.399994 166.700012 C 183.300003 158.299988 194.399994 151 206.600006 143.099976 Z"/>
        <path id="path4" fill="#ff9400" stroke="none" d="M 165.899994 625.799988 C 130.300003 620.200012 94.699997 613.599976 58.299999 618.099976 C 45.400002 619.700012 43 618.200012 38 605.900024 C 30.9 588.400024 31.799999 571.400024 40.700001 554.799988 C 54.799999 528.599976 86 523.5 107.699997 543.799988 C 110.400002 546.299988 112.800003 549.099976 115.400002 551.799988 C 116.099998 551.400024 116.699997 551.200012 117 550.799988 C 132.800003 528.900024 159.300003 525.400024 181 542.5 C 201 558.200012 207.699997 584.400024 198.199997 610.400024 C 196.899994 614 196.100006 616.599976 199.600006 619.599976 C 203 622.5 201.800003 625.299988 197.699997 627 C 192.300003 629.200012 187 631.599976 181.800003 634.099976 C 173.5 638.099976 166.5 634.799988 165.899994 625.799988 Z M 183.199997 587.700012 C 182.699997 573.200012 178.899994 561.099976 166.199997 553.400024 C 156.699997 547.599976 146.600006 546.900024 137.699997 553 C 128.600006 559.299988 126.800003 569.400024 128.699997 580.099976 C 129.5 584.799988 131.199997 589.299988 131.5 594 C 131.899994 599.799988 134.899994 601.400024 140.100006 602 C 147.800003 602.799988 155.5 604.400024 163.199997 606 C 179.5 609.5 181.199997 608.299988 183 591.400024 C 183.100006 589.799988 183.100006 588.400024 183.199997 587.700012 Z M 112.400002 598.5 C 111.699997 592.700012 110.900002 588.5 110.599998 584.200012 C 109.800003 568.799988 101.300003 558.099976 88.699997 550.700012 C 84.699997 548.400024 78.699997 547.700012 74.099998 548.599976 C 55.400002 552.299988 42.400002 581.5 50.200001 598.400024 C 71 598.5 91.199997 598.5 112.400002 598.5 Z"/>
        <path id="path5" fill="#ff9400" stroke="none" d="M 748.200012 606.599976 C 742.900024 624 736.799988 641.299988 732.5 659 C 726.099976 685 712.5 707.400024 699.200012 730.099976 C 661.5 794.299988 630.599976 861.599976 607.400024 932.299988 C 604.200012 942.099976 601.099976 951.900024 598 961.599976 C 595.200012 970.5 586.099976 973.599976 578.599976 968.099976 C 574.200012 964.900024 575.400024 960.5 576.700012 956.299988 C 581.299988 942.200012 585.700012 928.099976 590.599976 914.200012 C 615.299988 843.799988 648.599976 777.400024 685.599976 712.700012 C 704.299988 679.900024 723 647 741.700012 614.099976 C 743.299988 611.299988 745.099976 608.599976 746.799988 605.799988 C 747.200012 606.099976 747.700012 606.400024 748.200012 606.599976 Z"/>
        <path id="path6" fill="#ff9400" stroke="none" d="M 142.5 430 C 141 423.900024 139.100006 417.799988 137.899994 411.599976 C 134.399994 392.599976 141 383.200012 159.899994 379.599976 C 162.100006 379.200012 164.199997 378.799988 167.199997 378.200012 C 165.899994 376.400024 165.199997 375.099976 164.199997 374 C 154.800003 364.200012 151.300003 352.200012 151 339.099976 C 150.800003 329.299988 154.699997 322.799988 161.800003 320.099976 C 169.5 317.299988 183.5 320.400024 188.199997 326.099976 C 188.699997 326.700012 188.800003 327.5 189.600006 329.299988 C 185.5 330.099976 181.800003 330.700012 178.100006 331.5 C 169.399994 333.5 168.800003 334.599976 170.5 343.299988 C 172.300003 352.799988 176.5 360.599976 186.899994 365.900024 C 186.899994 363.099976 187.100006 361.200012 186.899994 359.400024 C 186.5 355.5 185.699997 351.700012 185.300003 347.799988 C 184.5 338.700012 189.100006 332.299988 197.699997 329.900024 C 205.399994 327.700012 213 325 220.699997 323.200012 C 223.300003 322.599976 227.600006 322.900024 228.899994 324.599976 C 230.399994 326.599976 230.5 330.900024 229.399994 333.400024 C 226 341.099976 219.800003 346.299988 211.5 348.099976 C 206.699997 349.099976 206 351.200012 206.699997 355.799988 C 208.300003 366.700012 208.300003 377.400024 196.699997 385 C 198.899994 386.400024 200.800003 387.200012 202.100006 388.599976 C 204.899994 391.5 208.199997 394.299988 209.899994 397.799988 C 212.699997 403.5 210.800003 406.900024 204.399994 406.700012 C 198.399994 406.599976 192.300003 405 186.600006 403.099976 C 178.600006 400.400024 170.699997 397.700012 162 399 C 156.800003 399.799988 155.199997 401.700012 156 407.200012 C 158.800003 427.200012 170.5 440.200012 187.699997 449.099976 C 190.600006 450.599976 193.600006 452 196.5 453.599976 C 202.5 457 204.5 461.900024 202.199997 466.799988 C 199.699997 472 194.199997 473.599976 187.899994 470.5 C 176.100006 464.599976 164.600006 458.400024 152.800003 452.400024 C 145.800003 448.799988 138.699997 445.700012 131.899994 441.900024 C 129.600006 440.599976 128.199997 437.700012 126.400002 435.5 C 128.899994 433.700012 131.100006 431.200012 133.899994 430.200012 C 136.5 429.299988 139.600006 430 142.5 430 Z"/>
        <path id="path7" fill="#ff9400" stroke="none" d="M 199.399994 270.400024 C 205.199997 261.799988 210.800003 253.099976 216.699997 244.700012 C 218 242.799988 220.300003 241.599976 222.100006 240.099976 C 222.899994 242.299988 224.199997 244.5 224.300003 246.799988 C 224.600006 251.299988 224.899994 256 223.800003 260.200012 C 221.5 269 218.399994 277.599976 215.399994 286.799988 C 220.100006 290.299988 226.300003 294.5 232.100006 299.099976 C 233.600006 300.299988 234 302.700012 234.899994 304.5 C 233.100006 305.299988 231.399994 306.5 229.600006 306.700012 C 216.100006 308.400024 203.5 304 191.199997 299.599976 C 165.300003 290.299988 139.600006 280.400024 113.800003 270.900024 C 109.800003 269.400024 105.599998 268.299988 101.400002 267.099976 C 96.900002 265.900024 94 263.200012 94.400002 258.400024 C 94.800003 253.599976 98.099998 251.099976 102.699997 250.900024 C 107 250.799988 111.5 250.700012 115.5 251.900024 C 132.5 257.200012 149.399994 263 166.399994 268.700012 C 169.300003 269.700012 172 270.900024 175.600006 272.200012 C 174.800003 262.700012 173.699997 254.200012 173.399994 245.700012 C 173 236.599976 176.800003 230.799988 184.399994 228.5 C 186.399994 227.900024 189.399994 228.400024 191 229.599976 C 191.899994 230.299988 191 233.5 190.800003 235.5 C 190.600006 237.5 189.600006 239.599976 190 241.400024 C 192.300003 251 194.899994 260.5 197.399994 270 C 198.199997 270.099976 198.800003 270.299988 199.399994 270.400024 Z"/>
        <path id="path8" fill="#ff9400" stroke="none" d="M 754.599976 311.400024 C 753 303.700012 751.299988 296 749.700012 288.200012 C 748.700012 290.299988 747.599976 292.599976 746.5 294.900024 C 746.099976 294.900024 745.700012 294.799988 745.299988 294.799988 C 745.299988 293.5 745.099976 292.200012 745.299988 290.900024 C 746.099976 286.700012 747.299988 282.599976 748 278.299988 C 750.799988 259.5 757.400024 242.200012 768.799988 226.900024 C 773.299988 220.900024 779.200012 216.900024 787.099976 217.400024 C 792.299988 217.700012 797.400024 220.400024 796.900024 225.5 C 796.5 230 792.599976 234.200012 789.900024 238.299988 C 789.700012 238.599976 786.599976 236.900024 783.599976 235.599976 C 782.299988 237.299988 780.099976 239.900024 778.299988 242.700012 C 773.900024 249.900024 769.599976 257.099976 765.599976 264.5 C 764.900024 265.700012 765.400024 267.700012 765.799988 269.200012 C 766.400024 271.299988 767.599976 273.200012 768.5 275.299988 C 774.700012 274.900024 778.599976 277.299988 778.400024 283.799988 C 778.099976 293.599976 776.700012 303.400024 775.299988 313.099976 C 775 315 772.400024 316.599976 770.900024 318.299988 C 769.400024 316.5 766.700012 314.700012 766.700012 312.799988 C 766.400024 305.299988 767 297.700012 767.200012 290.200012 C 767.299988 287.400024 767.599976 284.700012 767.799988 281.200012 C 764.5 291.900024 761.5 301.700012 758.5 311.599976 C 757.099976 311.5 755.900024 311.5 754.599976 311.400024 Z"/>
        <path id="path9" fill="#ff9400" stroke="none" d="M 885 657.599976 C 889.799988 660.099976 894.299988 661.900024 898.200012 664.700012 C 901.099976 666.799988 901.400024 670.099976 896.799988 670.700012 C 884 672.200012 876.599976 681.200012 869.799988 690.400024 C 856 709 842.700012 728 829.599976 747.099976 C 826 752.299988 823.799988 758.5 820.5 763.900024 C 819.700012 765.299988 817 765.5 815.099976 766.200012 C 814.700012 764.400024 813.400024 762.099976 814.099976 760.799988 C 826.299988 736.200012 833.400024 709 851 687.299988 C 857.599976 679.200012 864.599976 671.400024 872.099976 664.200012 C 875.299988 661.099976 880.299988 659.900024 885 657.599976 Z"/>
        <path id="path10" fill="#ff9400" stroke="none" d="M 127.599998 477.900024 C 148.800003 479.299988 168.300003 486.099976 187.399994 494.299988 C 189.199997 495.099976 191.5 496.200012 192.300003 497.799988 C 193.600006 500.5 195.300003 504.200012 194.399994 506.599976 C 193.5 509 189.800003 511.700012 187.199997 511.900024 C 183.100006 512.299988 178.699997 511 174.600006 509.799988 C 157.300003 504.799988 140 499.599976 122.699997 494.5 C 120.5 493.900024 118 493.700012 116.400002 492.299988 C 114.599998 490.700012 112.5 488.099976 112.599998 486 C 112.699997 484 114.900002 481.099976 116.900002 480.200012 C 120.199997 478.900024 124 478.700012 127.599998 477.900024 Z"/>
        <path id="path11" fill="#ff9400" stroke="none" d="M 67.5 482.5 C 66.400002 482.400024 63.900002 482.400024 61.5 482 C 55.299999 481.099976 51.799999 477 52 471.099976 C 52.200001 465.5 56.299999 460.799988 62.400002 461.099976 C 70.599998 461.5 78.699997 462.900024 86.800003 464.099976 C 90 464.599976 93.199997 465.599976 96.099998 466.799988 C 97.5 467.400024 99.099998 469 99.400002 470.400024 C 99.699997 471.5 98.300003 473.5 97.199997 474.200012 C 87.300003 480.700012 79.900002 482.799988 67.5 482.5 Z"/>
        <path id="path12" fill="#ff9400" stroke="none" d="M 277.299988 826.200012 C 283.299988 841.099976 288.899994 854.900024 291 871.099976 C 272.200012 859.799988 272.799988 844.200012 277.299988 826.200012 Z"/>
        <path id="path13" fill="#ff9400" stroke="none" d="M 791.700012 320.400024 C 790.5 314.599976 789.299988 308.799988 788.099976 303 C 788.700012 302.900024 789.400024 302.700012 790 302.599976 C 791.099976 308.400024 792.099976 314.299988 793.200012 320.099976 C 792.700012 320.200012 792.200012 320.299988 791.700012 320.400024 Z"/>
        <path id="path14" fill="#ff9400" stroke="none" d="M 395.600006 597 C 389.700012 594.700012 383.899994 592.799988 378.600006 590 C 375.100006 588.200012 372.899994 584.700012 375.899994 580.900024 C 378.700012 577.299988 382.100006 577.900024 385.5 580.700012 C 389.5 583.900024 393.799988 586.700012 397.700012 590 C 398.799988 591 399.799988 593 399.600006 594.400024 C 399.5 595.200012 397.200012 595.900024 395.600006 597 Z"/>
        <path id="path15" fill="#ff9400" stroke="none" d="M 639.599976 598.400024 C 639.799988 593.5 635.900024 586.799988 645 585.900024 C 643.200012 590.099976 641.400024 594.200012 639.599976 598.400024 Z"/>
    </g>
</svg>
